<svg width="105" height="75" viewBox="0 0 105 75" fill="none" xmlns="http://www.w3.org/2000/svg">
<g clip-path="url(#clip0_3876_92574)">
<path d="M9.10301 64.5312H0V73.4717H9.10301V64.5312Z" fill="#9FAAA0"/>
<path d="M8.78092 64.375H0.328125V72.8278H8.78092V64.375Z" fill="#E2E8E3"/>
<path d="M5.32132 70.2231H2.27344V66.4844H5.24004L7.31261 67.4191V69.3291L5.32132 70.2231Z" fill="#141414"/>
<path d="M4.53978 67.5573C4.54011 67.6031 4.52683 67.6478 4.50167 67.686C4.4765 67.7242 4.44057 67.754 4.39842 67.7717C4.35627 67.7895 4.3098 67.7943 4.26492 67.7855C4.22004 67.7768 4.17876 67.755 4.14632 67.7228C4.11387 67.6905 4.09172 67.6494 4.08268 67.6046C4.07364 67.5598 4.07812 67.5133 4.09554 67.471C4.11296 67.4287 4.14255 67.3926 4.18055 67.3671C4.21854 67.3417 4.26323 67.3281 4.30895 67.3281C4.36989 67.3281 4.42836 67.3522 4.4716 67.3952C4.51485 67.4381 4.53935 67.4964 4.53978 67.5573Z" fill="#FCF9F4"/>
<path d="M4.53978 69.0183C4.54011 69.064 4.52683 69.1088 4.50167 69.147C4.4765 69.1851 4.44057 69.215 4.39842 69.2327C4.35627 69.2504 4.3098 69.2552 4.26492 69.2465C4.22004 69.2378 4.17876 69.2159 4.14632 69.1837C4.11387 69.1515 4.09172 69.1103 4.08268 69.0655C4.07364 69.0207 4.07812 68.9742 4.09554 68.9319C4.11296 68.8897 4.14255 68.8535 4.18055 68.8281C4.21854 68.8026 4.26323 68.7891 4.30895 68.7891C4.36989 68.7891 4.42836 68.8132 4.4716 68.8561C4.51485 68.899 4.53935 68.9573 4.53978 69.0183Z" fill="#FCF9F4"/>
<path d="M6.5 68.3522H12.5145L12.4056 50.3088L20.886 45.1883V62.5816L22.6741 62.5686V59.2492H23.9745V58.599H27.5507V59.4118H28.526V52.7471H37.0601L40.555 53.6005V61.525H43.6435V58.599H46.2444V59.8994H48.0325L47.8699 53.8849H48.5202V51.6092L49.9929 51.5279L49.9019 43.0751L51.2836 45.0258L51.4461 52.422H53.2342L53.1123 40.1491L55.51 42.0185V62.0939V64.3697L56.9128 63.3131H60.6304L62.0121 64.7354V66.7267H62.8249V65.4263H66.2385V53.0722H67.5389V42.8313H68.9743L68.8117 35.3538L71.1964 22.1593L74.1256 35.1636L74.2037 42.8313H75.179V53.0722H76.3169V65.7514H78.2675V67.9458L79.0803 67.2956V65.9139H80.2181V58.4364H81.8437V51.6092H82.819V50.1462H86.3952V51.6092H87.0454V58.1113H87.8582V60.5496H88.8335V59.8994H89.4837V60.8748H91.922V65.345V74.2042H99.7246L99.6433 7.31328L104.533 0.242188H45.5942V15.9286" stroke="#141414" stroke-width="3" stroke-miterlimit="10"/>
<path d="M46.4912 0H44.7031V2.43831H46.4912V0Z" fill="#141414"/>
<path d="M47.9235 12.4232C47.9235 12.8215 46.8311 13.1433 45.4852 13.1433C44.1392 13.1433 43.0469 12.8182 43.0469 12.4232C43.0469 12.0282 44.1376 11.7031 45.4852 11.7031C46.8328 11.7031 47.9235 12.0282 47.9235 12.4232Z" fill="#141414"/>
<path d="M45.6775 31.2897C48.3169 31.2897 50.4566 28.7606 50.4566 25.6409C50.4566 22.5212 48.3169 19.9922 45.6775 19.9922C43.0381 19.9922 40.8984 22.5212 40.8984 25.6409C40.8984 28.7606 43.0381 31.2897 45.6775 31.2897Z" fill="#FFF2B1"/>
<path d="M45.6772 31.2812C48.3121 31.2812 50.4482 28.7558 50.4482 25.6406C50.4482 22.5254 48.3121 20 45.6772 20C43.0423 20 40.9062 22.5254 40.9062 25.6406C40.9062 28.7558 43.0423 31.2812 45.6772 31.2812Z" fill="#FFF2B1"/>
<path d="M45.6769 31.2695C48.3073 31.2695 50.4397 28.7485 50.4397 25.6387C50.4397 22.5288 48.3073 20.0078 45.6769 20.0078C43.0465 20.0078 40.9141 22.5288 40.9141 25.6387C40.9141 28.7485 43.0465 31.2695 45.6769 31.2695Z" fill="#FFF2B2"/>
<path d="M45.6766 31.2611C48.3025 31.2611 50.4313 28.7437 50.4313 25.6384C50.4313 22.533 48.3025 20.0156 45.6766 20.0156C43.0506 20.0156 40.9219 22.533 40.9219 25.6384C40.9219 28.7437 43.0506 31.2611 45.6766 31.2611Z" fill="#FFF2B2"/>
<path d="M45.6746 31.2494C48.2952 31.2494 50.4196 28.7364 50.4196 25.6364C50.4196 22.5365 48.2952 20.0234 45.6746 20.0234C43.0541 20.0234 40.9297 22.5365 40.9297 25.6364C40.9297 28.7364 43.0541 31.2494 45.6746 31.2494Z" fill="#FFF2B2"/>
<path d="M45.6743 31.241C48.2904 31.241 50.4111 28.7316 50.4111 25.6361C50.4111 22.5406 48.2904 20.0312 45.6743 20.0312C43.0582 20.0312 40.9375 22.5406 40.9375 25.6361C40.9375 28.7316 43.0582 31.241 45.6743 31.241Z" fill="#FFF2B3"/>
<path d="M45.674 31.2293C48.2856 31.2293 50.4027 28.7243 50.4027 25.6342C50.4027 22.5441 48.2856 20.0391 45.674 20.0391C43.0624 20.0391 40.9453 22.5441 40.9453 25.6342C40.9453 28.7243 43.0624 31.2293 45.674 31.2293Z" fill="#FFF2B3"/>
<path d="M45.6815 31.2286C48.2886 31.2286 50.4021 28.7273 50.4021 25.6417C50.4021 22.5561 48.2886 20.0547 45.6815 20.0547C43.0744 20.0547 40.9609 22.5561 40.9609 25.6417C40.9609 28.7273 43.0744 31.2286 45.6815 31.2286Z" fill="#FFF2B3"/>
<path d="M45.6796 31.2169C48.2813 31.2169 50.3904 28.7199 50.3904 25.6397C50.3904 22.5595 48.2813 20.0625 45.6796 20.0625C43.0779 20.0625 40.9688 22.5595 40.9688 25.6397C40.9688 28.7199 43.0779 31.2169 45.6796 31.2169Z" fill="#FFF3B4"/>
<path d="M45.6792 31.2085C48.2765 31.2085 50.3819 28.7151 50.3819 25.6394C50.3819 22.5637 48.2765 20.0703 45.6792 20.0703C43.082 20.0703 40.9766 22.5637 40.9766 25.6394C40.9766 28.7151 43.082 31.2085 45.6792 31.2085Z" fill="#FFF3B4"/>
<path d="M45.6789 31.1968C48.2717 31.1968 50.3735 28.7078 50.3735 25.6375C50.3735 22.5671 48.2717 20.0781 45.6789 20.0781C43.0862 20.0781 40.9844 22.5671 40.9844 25.6375C40.9844 28.7078 43.0862 31.1968 45.6789 31.1968Z" fill="#FFF3B5"/>
<path d="M45.6786 31.1884C48.2669 31.1884 50.365 28.703 50.365 25.6371C50.365 22.5713 48.2669 20.0859 45.6786 20.0859C43.0904 20.0859 40.9922 22.5713 40.9922 25.6371C40.9922 28.703 43.0904 31.1884 45.6786 31.1884Z" fill="#FFF3B5"/>
<path d="M45.6767 31.1767C48.2595 31.1767 50.3533 28.6957 50.3533 25.6352C50.3533 22.5747 48.2595 20.0938 45.6767 20.0938C43.0938 20.0938 41 22.5747 41 25.6352C41 28.6957 43.0938 31.1767 45.6767 31.1767Z" fill="#FFF3B5"/>
<path d="M45.6764 31.1682C48.2547 31.1682 50.3449 28.6909 50.3449 25.6349C50.3449 22.5789 48.2547 20.1016 45.6764 20.1016C43.098 20.1016 41.0078 22.5789 41.0078 25.6349C41.0078 28.6909 43.098 31.1682 45.6764 31.1682Z" fill="#FFF3B6"/>
<path d="M45.676 31.1565C48.2499 31.1565 50.3365 28.6835 50.3365 25.633C50.3365 22.5824 48.2499 20.1094 45.676 20.1094C43.1022 20.1094 41.0156 22.5824 41.0156 25.633C41.0156 28.6835 43.1022 31.1565 45.676 31.1565Z" fill="#FFF3B6"/>
<path d="M45.6757 31.1481C48.2451 31.1481 50.328 28.6787 50.328 25.6326C50.328 22.5865 48.2451 20.1172 45.6757 20.1172C43.1063 20.1172 41.0234 22.5865 41.0234 25.6326C41.0234 28.6787 43.1063 31.1481 45.6757 31.1481Z" fill="#FFF3B6"/>
<path d="M45.6738 31.1364C48.2378 31.1364 50.3163 28.6714 50.3163 25.6307C50.3163 22.59 48.2378 20.125 45.6738 20.125C43.1098 20.125 41.0312 22.59 41.0312 25.6307C41.0312 28.6714 43.1098 31.1364 45.6738 31.1364Z" fill="#FFF3B7"/>
<path d="M45.6813 31.128C48.2408 31.128 50.3157 28.6666 50.3157 25.6304C50.3157 22.5942 48.2408 20.1328 45.6813 20.1328C43.1218 20.1328 41.0469 22.5942 41.0469 25.6304C41.0469 28.6666 43.1218 31.128 45.6813 31.128Z" fill="#FFF3B7"/>
<path d="M45.681 31.1163C48.236 31.1163 50.3072 28.6593 50.3072 25.6284C50.3072 22.5976 48.236 20.1406 45.681 20.1406C43.1259 20.1406 41.0547 22.5976 41.0547 25.6284C41.0547 28.6593 43.1259 31.1163 45.681 31.1163Z" fill="#FFF3B7"/>
<path d="M45.679 31.1078C48.2287 31.1078 50.2956 28.6545 50.2956 25.6281C50.2956 22.6018 48.2287 20.1484 45.679 20.1484C43.1294 20.1484 41.0625 22.6018 41.0625 25.6281C41.0625 28.6545 43.1294 31.1078 45.679 31.1078Z" fill="#FFF3B8"/>
<path d="M45.6787 31.0994C48.2239 31.0994 50.2871 28.6497 50.2871 25.6278C50.2871 22.606 48.2239 20.1562 45.6787 20.1562C43.1336 20.1562 41.0703 22.606 41.0703 25.6278C41.0703 28.6497 43.1336 31.0994 45.6787 31.0994Z" fill="#FFF3B8"/>
<path d="M45.6784 31.0877C48.2191 31.0877 50.2787 28.6423 50.2787 25.6259C50.2787 22.6094 48.2191 20.1641 45.6784 20.1641C43.1377 20.1641 41.0781 22.6094 41.0781 25.6259C41.0781 28.6423 43.1377 31.0877 45.6784 31.0877Z" fill="#FFF3B8"/>
<path d="M45.6781 31.0792C48.2143 31.0792 50.2702 28.6375 50.2702 25.6256C50.2702 22.6136 48.2143 20.1719 45.6781 20.1719C43.1419 20.1719 41.0859 22.6136 41.0859 25.6256C41.0859 28.6375 43.1419 31.0792 45.6781 31.0792Z" fill="#FFF3B9"/>
<path d="M45.6761 31.0675C48.2069 31.0675 50.2585 28.6302 50.2585 25.6236C50.2585 22.617 48.2069 20.1797 45.6761 20.1797C43.1454 20.1797 41.0938 22.617 41.0938 25.6236C41.0938 28.6302 43.1454 31.0675 45.6761 31.0675Z" fill="#FFF3B9"/>
<path d="M45.6758 31.0591C48.2021 31.0591 50.2501 28.6254 50.2501 25.6233C50.2501 22.6212 48.2021 20.1875 45.6758 20.1875C43.1495 20.1875 41.1016 22.6212 41.1016 25.6233C41.1016 28.6254 43.1495 31.0591 45.6758 31.0591Z" fill="#FFF4B9"/>
<path d="M45.6755 31.0474C48.1973 31.0474 50.2416 28.6181 50.2416 25.6214C50.2416 22.6246 48.1973 20.1953 45.6755 20.1953C43.1537 20.1953 41.1094 22.6246 41.1094 25.6214C41.1094 28.6181 43.1537 31.0474 45.6755 31.0474Z" fill="#FFF4BA"/>
<path d="M45.6752 31.039C48.1925 31.039 50.2332 28.6133 50.2332 25.621C50.2332 22.6288 48.1925 20.2031 45.6752 20.2031C43.1579 20.2031 41.1172 22.6288 41.1172 25.621C41.1172 28.6133 43.1579 31.039 45.6752 31.039Z" fill="#FEF4BA"/>
<path d="M45.6811 31.0273C48.193 31.0273 50.2293 28.6059 50.2293 25.6191C50.2293 22.6323 48.193 20.2109 45.6811 20.2109C43.1691 20.2109 41.1328 22.6323 41.1328 25.6191C41.1328 28.6059 43.1691 31.0273 45.6811 31.0273Z" fill="#FEF4BB"/>
<path d="M45.6808 31.0188C48.1882 31.0188 50.2209 28.6011 50.2209 25.6188C50.2209 22.6364 48.1882 20.2188 45.6808 20.2188C43.1733 20.2188 41.1406 22.6364 41.1406 25.6188C41.1406 28.6011 43.1733 31.0188 45.6808 31.0188Z" fill="#FEF4BB"/>
<path d="M45.6804 31.0071C48.1834 31.0071 50.2124 28.5938 50.2124 25.6168C50.2124 22.6399 48.1834 20.2266 45.6804 20.2266C43.1775 20.2266 41.1484 22.6399 41.1484 25.6168C41.1484 28.5938 43.1775 31.0071 45.6804 31.0071Z" fill="#FEF4BB"/>
<path d="M45.6801 30.9987C48.1786 30.9987 50.204 28.589 50.204 25.6165C50.204 22.644 48.1786 20.2344 45.6801 20.2344C43.1817 20.2344 41.1562 22.644 41.1562 25.6165C41.1562 28.589 43.1817 30.9987 45.6801 30.9987Z" fill="#FEF4BC"/>
<path d="M45.6782 30.987C48.1713 30.987 50.1923 28.5817 50.1923 25.6146C50.1923 22.6475 48.1713 20.2422 45.6782 20.2422C43.1851 20.2422 41.1641 22.6475 41.1641 25.6146C41.1641 28.5817 43.1851 30.987 45.6782 30.987Z" fill="#FEF4BC"/>
<path d="M45.6779 30.9785C48.1665 30.9785 50.1839 28.5769 50.1839 25.6143C50.1839 22.6517 48.1665 20.25 45.6779 20.25C43.1893 20.25 41.1719 22.6517 41.1719 25.6143C41.1719 28.5769 43.1893 30.9785 45.6779 30.9785Z" fill="#FEF4BC"/>
<path d="M45.6776 30.9747C48.1617 30.9747 50.1754 28.5774 50.1754 25.6201C50.1754 22.6629 48.1617 20.2656 45.6776 20.2656C43.1934 20.2656 41.1797 22.6629 41.1797 25.6201C41.1797 28.5774 43.1934 30.9747 45.6776 30.9747Z" fill="#FEF4BD"/>
<path d="M45.6772 30.9584C48.1568 30.9584 50.167 28.5648 50.167 25.612C50.167 22.6593 48.1568 20.2656 45.6772 20.2656C43.1976 20.2656 41.1875 22.6593 41.1875 25.612C41.1875 28.5648 43.1976 30.9584 45.6772 30.9584Z" fill="#FEF4BD"/>
<path d="M45.6753 30.9545C48.1495 30.9545 50.1553 28.5652 50.1553 25.6179C50.1553 22.6705 48.1495 20.2812 45.6753 20.2812C43.2011 20.2812 41.1953 22.6705 41.1953 25.6179C41.1953 28.5652 43.2011 30.9545 45.6753 30.9545Z" fill="#FEF4BD"/>
<path d="M45.675 30.9383C48.1447 30.9383 50.1468 28.5526 50.1468 25.6098C50.1468 22.6669 48.1447 20.2812 45.675 20.2812C43.2052 20.2812 41.2031 22.6669 41.2031 25.6098C41.2031 28.5526 43.2052 30.9383 45.675 30.9383Z" fill="#FEF4BE"/>
<path d="M45.6747 30.9376C48.1399 30.9376 50.1384 28.5556 50.1384 25.6173C50.1384 22.6789 48.1399 20.2969 45.6747 20.2969C43.2094 20.2969 41.2109 22.6789 41.2109 25.6173C41.2109 28.5556 43.2094 30.9376 45.6747 30.9376Z" fill="#FEF4BE"/>
<path d="M45.6744 30.926C48.1351 30.926 50.13 28.5483 50.13 25.6153C50.13 22.6823 48.1351 20.3047 45.6744 20.3047C43.2136 20.3047 41.2188 22.6823 41.2188 25.6153C41.2188 28.5483 43.2136 30.926 45.6744 30.926Z" fill="#FEF4BE"/>
<path d="M45.6802 30.9175C48.1356 30.9175 50.1261 28.5435 50.1261 25.615C50.1261 22.6865 48.1356 20.3125 45.6802 20.3125C43.2248 20.3125 41.2344 22.6865 41.2344 25.615C41.2344 28.5435 43.2248 30.9175 45.6802 30.9175Z" fill="#FEF5BF"/>
<path d="M45.6799 30.9058C48.1308 30.9058 50.1176 28.5362 50.1176 25.6131C50.1176 22.69 48.1308 20.3203 45.6799 20.3203C43.229 20.3203 41.2422 22.69 41.2422 25.6131C41.2422 28.5362 43.229 30.9058 45.6799 30.9058Z" fill="#FEF5BF"/>
<path d="M45.6796 30.8974C48.126 30.8974 50.1092 28.5314 50.1092 25.6127C50.1092 22.6941 48.126 20.3281 45.6796 20.3281C43.2332 20.3281 41.25 22.6941 41.25 25.6127C41.25 28.5314 43.2332 30.8974 45.6796 30.8974Z" fill="#FEF5BF"/>
<path d="M45.6793 30.8857C48.1212 30.8857 50.1007 28.524 50.1007 25.6108C50.1007 22.6976 48.1212 20.3359 45.6793 20.3359C43.2374 20.3359 41.2578 22.6976 41.2578 25.6108C41.2578 28.524 43.2374 30.8857 45.6793 30.8857Z" fill="#FEF5C0"/>
<path d="M45.6773 30.8772C48.1139 30.8772 50.089 28.5192 50.089 25.6105C50.089 22.7018 48.1139 20.3438 45.6773 20.3438C43.2408 20.3438 41.2656 22.7018 41.2656 25.6105C41.2656 28.5192 43.2408 30.8772 45.6773 30.8772Z" fill="#FEF5C0"/>
<path d="M45.677 30.8655C48.1091 30.8655 50.0806 28.5119 50.0806 25.6086C50.0806 22.7052 48.1091 20.3516 45.677 20.3516C43.245 20.3516 41.2734 22.7052 41.2734 25.6086C41.2734 28.5119 43.245 30.8655 45.677 30.8655Z" fill="#FEF5C1"/>
<path d="M45.6767 30.8571C48.1042 30.8571 50.0722 28.5071 50.0722 25.6082C50.0722 22.7094 48.1042 20.3594 45.6767 20.3594C43.2492 20.3594 41.2812 22.7094 41.2812 25.6082C41.2812 28.5071 43.2492 30.8571 45.6767 30.8571Z" fill="#FEF5C1"/>
<path d="M45.6764 30.8454C48.0994 30.8454 50.0637 28.4998 50.0637 25.6063C50.0637 22.7128 48.0994 20.3672 45.6764 20.3672C43.2533 20.3672 41.2891 22.7128 41.2891 25.6063C41.2891 28.4998 43.2533 30.8454 45.6764 30.8454Z" fill="#FEF5C1"/>
<path d="M45.6744 30.837C48.0921 30.837 50.052 28.495 50.052 25.606C50.052 22.717 48.0921 20.375 45.6744 20.375C43.2568 20.375 41.2969 22.717 41.2969 25.606C41.2969 28.495 43.2568 30.837 45.6744 30.837Z" fill="#FEF5C2"/>
<path d="M45.6741 30.8253C48.0873 30.8253 50.0436 28.4876 50.0436 25.604C50.0436 22.7204 48.0873 20.3828 45.6741 20.3828C43.261 20.3828 41.3047 22.7204 41.3047 25.604C41.3047 28.4876 43.261 30.8253 45.6741 30.8253Z" fill="#FEF5C2"/>
<path d="M45.6738 30.8168C48.0825 30.8168 50.0351 28.4828 50.0351 25.6037C50.0351 22.7246 48.0825 20.3906 45.6738 20.3906C43.2651 20.3906 41.3125 22.7246 41.3125 25.6037C41.3125 28.4828 43.2651 30.8168 45.6738 30.8168Z" fill="#FEF5C2"/>
<path d="M45.6813 30.8051C48.0855 30.8051 50.0345 28.4755 50.0345 25.6018C50.0345 22.7281 48.0855 20.3984 45.6813 20.3984C43.2771 20.3984 41.3281 22.7281 41.3281 25.6018C41.3281 28.4755 43.2771 30.8051 45.6813 30.8051Z" fill="#FEF5C3"/>
<path d="M45.6794 30.7967C48.0782 30.7967 50.0228 28.4707 50.0228 25.6015C50.0228 22.7322 48.0782 20.4062 45.6794 20.4062C43.2806 20.4062 41.3359 22.7322 41.3359 25.6015C41.3359 28.4707 43.2806 30.7967 45.6794 30.7967Z" fill="#FEF5C3"/>
<path d="M45.6791 30.785C48.0734 30.785 50.0144 28.4634 50.0144 25.5995C50.0144 22.7357 48.0734 20.4141 45.6791 20.4141C43.2847 20.4141 41.3438 22.7357 41.3438 25.5995C41.3438 28.4634 43.2847 30.785 45.6791 30.785Z" fill="#FEF5C3"/>
<path d="M45.6787 30.7766C48.0686 30.7766 50.0059 28.4586 50.0059 25.5992C50.0059 22.7398 48.0686 20.4219 45.6787 20.4219C43.2889 20.4219 41.3516 22.7398 41.3516 25.5992C41.3516 28.4586 43.2889 30.7766 45.6787 30.7766Z" fill="#FEF5C4"/>
<path d="M45.6768 30.7649C48.0613 30.7649 49.9942 28.4513 49.9942 25.5973C49.9942 22.7433 48.0613 20.4297 45.6768 20.4297C43.2924 20.4297 41.3594 22.7433 41.3594 25.5973C41.3594 28.4513 43.2924 30.7649 45.6768 30.7649Z" fill="#FEF5C4"/>
<path d="M45.6765 30.7564C48.0564 30.7564 49.9858 28.4464 49.9858 25.597C49.9858 22.7475 48.0564 20.4375 45.6765 20.4375C43.2965 20.4375 41.3672 22.7475 41.3672 25.597C41.3672 28.4464 43.2965 30.7564 45.6765 30.7564Z" fill="#FEF6C4"/>
<path d="M45.6762 30.748C48.0516 30.748 49.9773 28.4416 49.9773 25.5966C49.9773 22.7516 48.0516 20.4453 45.6762 20.4453C43.3007 20.4453 41.375 22.7516 41.375 25.5966C41.375 28.4416 43.3007 30.748 45.6762 30.748Z" fill="#FEF6C5"/>
<path d="M45.6759 30.7363C48.0468 30.7363 49.9689 28.4343 49.9689 25.5947C49.9689 22.7551 48.0468 20.4531 45.6759 20.4531C43.3049 20.4531 41.3828 22.7551 41.3828 25.5947C41.3828 28.4343 43.3049 30.7363 45.6759 30.7363Z" fill="#FEF6C5"/>
<path d="M45.6739 30.7278C48.0395 30.7278 49.9572 28.4295 49.9572 25.5944C49.9572 22.7593 48.0395 20.4609 45.6739 20.4609C43.3083 20.4609 41.3906 22.7593 41.3906 25.5944C41.3906 28.4295 43.3083 30.7278 45.6739 30.7278Z" fill="#FEF6C5"/>
<path d="M45.6814 30.7161C48.0425 30.7161 49.9566 28.4222 49.9566 25.5924C49.9566 22.7627 48.0425 20.4688 45.6814 20.4688C43.3203 20.4688 41.4062 22.7627 41.4062 25.5924C41.4062 28.4222 43.3203 30.7161 45.6814 30.7161Z" fill="#FEF6C6"/>
<path d="M45.6811 30.7077C48.0377 30.7077 49.9481 28.4174 49.9481 25.5921C49.9481 22.7669 48.0377 20.4766 45.6811 20.4766C43.3245 20.4766 41.4141 22.7669 41.4141 25.5921C41.4141 28.4174 43.3245 30.7077 45.6811 30.7077Z" fill="#FEF6C6"/>
<path d="M45.6808 30.696C48.0329 30.696 49.9397 28.4101 49.9397 25.5902C49.9397 22.7703 48.0329 20.4844 45.6808 20.4844C43.3287 20.4844 41.4219 22.7703 41.4219 25.5902C41.4219 28.4101 43.3287 30.696 45.6808 30.696Z" fill="#FEF6C7"/>
<path d="M45.6788 30.6876C48.0256 30.6876 49.928 28.4053 49.928 25.5899C49.928 22.7745 48.0256 20.4922 45.6788 20.4922C43.3321 20.4922 41.4297 22.7745 41.4297 25.5899C41.4297 28.4053 43.3321 30.6876 45.6788 30.6876Z" fill="#FEF6C7"/>
<path d="M45.6785 30.6837C48.0208 30.6837 49.9196 28.4057 49.9196 25.5957C49.9196 22.7858 48.0208 20.5078 45.6785 20.5078C43.3363 20.5078 41.4375 22.7858 41.4375 25.5957C41.4375 28.4057 43.3363 30.6837 45.6785 30.6837Z" fill="#FEF6C7"/>
<path d="M45.6782 30.6674C48.016 30.6674 49.9111 28.3931 49.9111 25.5876C49.9111 22.7821 48.016 20.5078 45.6782 20.5078C43.3404 20.5078 41.4453 22.7821 41.4453 25.5876C41.4453 28.3931 43.3404 30.6674 45.6782 30.6674Z" fill="#FEF6C8"/>
<path d="M45.6779 30.6635C48.0112 30.6635 49.9027 28.3936 49.9027 25.5935C49.9027 22.7934 48.0112 20.5234 45.6779 20.5234C43.3446 20.5234 41.4531 22.7934 41.4531 25.5935C41.4531 28.3936 43.3446 30.6635 45.6779 30.6635Z" fill="#FEF6C8"/>
<path d="M45.676 30.6473C48.0038 30.6473 49.891 28.381 49.891 25.5854C49.891 22.7897 48.0038 20.5234 45.676 20.5234C43.3481 20.5234 41.4609 22.7897 41.4609 25.5854C41.4609 28.381 43.3481 30.6473 45.676 30.6473Z" fill="#FEF6C8"/>
<path d="M45.6756 30.6434C47.999 30.6434 49.8825 28.3815 49.8825 25.5912C49.8825 22.801 47.999 20.5391 45.6756 20.5391C43.3522 20.5391 41.4688 22.801 41.4688 25.5912C41.4688 28.3815 43.3522 30.6434 45.6756 30.6434Z" fill="#FEF6C9"/>
<path d="M45.6753 30.635C47.9942 30.635 49.8741 28.3767 49.8741 25.5909C49.8741 22.8052 47.9942 20.5469 45.6753 20.5469C43.3564 20.5469 41.4766 22.8052 41.4766 25.5909C41.4766 28.3767 43.3564 30.635 45.6753 30.635Z" fill="#FEF6C9"/>
<path d="M45.675 30.6233C47.9894 30.6233 49.8656 28.3693 49.8656 25.589C49.8656 22.8086 47.9894 20.5547 45.675 20.5547C43.3606 20.5547 41.4844 22.8086 41.4844 25.589C41.4844 28.3693 43.3606 30.6233 45.675 30.6233Z" fill="#FEF6C9"/>
<path d="M45.6809 30.6148C47.9899 30.6148 49.8618 28.3645 49.8618 25.5887C49.8618 22.8128 47.9899 20.5625 45.6809 20.5625C43.3718 20.5625 41.5 22.8128 41.5 25.5887C41.5 28.3645 43.3718 30.6148 45.6809 30.6148Z" fill="#FEF7CA"/>
<path d="M45.6806 30.6031C47.9851 30.6031 49.8533 28.3572 49.8533 25.5867C49.8533 22.8162 47.9851 20.5703 45.6806 20.5703C43.376 20.5703 41.5078 22.8162 41.5078 25.5867C41.5078 28.3572 43.376 30.6031 45.6806 30.6031Z" fill="#FEF7CA"/>
<path d="M45.6803 30.5947C47.9803 30.5947 49.8449 28.3524 49.8449 25.5864C49.8449 22.8204 47.9803 20.5781 45.6803 20.5781C43.3802 20.5781 41.5156 22.8204 41.5156 25.5864C41.5156 28.3524 43.3802 30.5947 45.6803 30.5947Z" fill="#FEF7CA"/>
<path d="M45.6799 30.583C47.9755 30.583 49.8364 28.3451 49.8364 25.5845C49.8364 22.8239 47.9755 20.5859 45.6799 20.5859C43.3844 20.5859 41.5234 22.8239 41.5234 25.5845C41.5234 28.3451 43.3844 30.583 45.6799 30.583Z" fill="#FEF7CB"/>
<path d="M45.678 30.5746C47.9682 30.5746 49.8247 28.3403 49.8247 25.5842C49.8247 22.828 47.9682 20.5938 45.678 20.5938C43.3878 20.5938 41.5312 22.828 41.5312 25.5842C41.5312 28.3403 43.3878 30.5746 45.678 30.5746Z" fill="#FEF7CB"/>
<path d="M45.6777 30.5661C47.9634 30.5661 49.8163 28.3355 49.8163 25.5838C49.8163 22.8322 47.9634 20.6016 45.6777 20.6016C43.392 20.6016 41.5391 22.8322 41.5391 25.5838C41.5391 28.3355 43.392 30.5661 45.6777 30.5661Z" fill="#FEF7CB"/>
<path d="M45.6774 30.5544C47.9586 30.5544 49.8079 28.3281 49.8079 25.5819C49.8079 22.8356 47.9586 20.6094 45.6774 20.6094C43.3962 20.6094 41.5469 22.8356 41.5469 25.5819C41.5469 28.3281 43.3962 30.5544 45.6774 30.5544Z" fill="#FDF7CC"/>
<path d="M45.6771 30.546C47.9538 30.546 49.7994 28.3233 49.7994 25.5816C49.7994 22.8398 47.9538 20.6172 45.6771 20.6172C43.4003 20.6172 41.5547 22.8398 41.5547 25.5816C41.5547 28.3233 43.4003 30.546 45.6771 30.546Z" fill="#FDF7CC"/>
<path d="M45.6751 30.5343C47.9464 30.5343 49.7877 28.316 49.7877 25.5796C49.7877 22.8433 47.9464 20.625 45.6751 20.625C43.4038 20.625 41.5625 22.8433 41.5625 25.5796C41.5625 28.316 43.4038 30.5343 45.6751 30.5343Z" fill="#FDF7CD"/>
<path d="M45.6748 30.5258C47.9416 30.5258 49.7793 28.3112 49.7793 25.5793C49.7793 22.8474 47.9416 20.6328 45.6748 20.6328C43.408 20.6328 41.5703 22.8474 41.5703 25.5793C41.5703 28.3112 43.408 30.5258 45.6748 30.5258Z" fill="#FDF7CD"/>
<path d="M45.6745 30.5141C47.9368 30.5141 49.7708 28.3039 49.7708 25.5774C49.7708 22.8509 47.9368 20.6406 45.6745 20.6406C43.4121 20.6406 41.5781 22.8509 41.5781 25.5774C41.5781 28.3039 43.4121 30.5141 45.6745 30.5141Z" fill="#FDF7CD"/>
<path d="M45.6742 30.5057C47.932 30.5057 49.7624 28.2991 49.7624 25.5771C49.7624 22.8551 47.932 20.6484 45.6742 20.6484C43.4163 20.6484 41.5859 22.8551 41.5859 25.5771C41.5859 28.2991 43.4163 30.5057 45.6742 30.5057Z" fill="#FDF7CE"/>
<path d="M45.68 30.494C47.9325 30.494 49.7585 28.2917 49.7585 25.5751C49.7585 22.8585 47.9325 20.6562 45.68 20.6562C43.4276 20.6562 41.6016 22.8585 41.6016 25.5751C41.6016 28.2917 43.4276 30.494 45.68 30.494Z" fill="#FDF7CE"/>
<path d="M45.6797 30.4856C47.9277 30.4856 49.7501 28.2869 49.7501 25.5748C49.7501 22.8627 47.9277 20.6641 45.6797 20.6641C43.4317 20.6641 41.6094 22.8627 41.6094 25.5748C41.6094 28.2869 43.4317 30.4856 45.6797 30.4856Z" fill="#FDF7CE"/>
<path d="M45.6794 30.4739C47.9229 30.4739 49.7416 28.2796 49.7416 25.5729C49.7416 22.8661 47.9229 20.6719 45.6794 20.6719C43.4359 20.6719 41.6172 22.8661 41.6172 25.5729C41.6172 28.2796 43.4359 30.4739 45.6794 30.4739Z" fill="#FDF7CF"/>
<path d="M45.6791 30.4654C47.9181 30.4654 49.7332 28.2748 49.7332 25.5726C49.7332 22.8703 47.9181 20.6797 45.6791 20.6797C43.4401 20.6797 41.625 22.8703 41.625 25.5726C41.625 28.2748 43.4401 30.4654 45.6791 30.4654Z" fill="#FDF7CF"/>
<path d="M45.6772 30.4537C47.9108 30.4537 49.7215 28.2675 49.7215 25.5706C49.7215 22.8737 47.9108 20.6875 45.6772 20.6875C43.4435 20.6875 41.6328 22.8737 41.6328 25.5706C41.6328 28.2675 43.4435 30.4537 45.6772 30.4537Z" fill="#FDF8CF"/>
<path d="M45.6768 30.4453C47.906 30.4453 49.713 28.2627 49.713 25.5703C49.713 22.8779 47.906 20.6953 45.6768 20.6953C43.4477 20.6953 41.6406 22.8779 41.6406 25.5703C41.6406 28.2627 43.4477 30.4453 45.6768 30.4453Z" fill="#FDF8D0"/>
<path d="M45.6765 30.4336C47.9012 30.4336 49.7046 28.2554 49.7046 25.5684C49.7046 22.8814 47.9012 20.7031 45.6765 20.7031C43.4519 20.7031 41.6484 22.8814 41.6484 25.5684C41.6484 28.2554 43.4519 30.4336 45.6765 30.4336Z" fill="#FDF8D0"/>
<path d="M45.6746 30.4252C47.8938 30.4252 49.6929 28.2506 49.6929 25.568C49.6929 22.8855 47.8938 20.7109 45.6746 20.7109C43.4553 20.7109 41.6562 22.8855 41.6562 25.568C41.6562 28.2506 43.4553 30.4252 45.6746 30.4252Z" fill="#FDF8D0"/>
<path d="M45.6743 30.4135C47.889 30.4135 49.6845 28.2432 49.6845 25.5661C49.6845 22.889 47.889 20.7188 45.6743 20.7188C43.4595 20.7188 41.6641 22.889 41.6641 25.5661C41.6641 28.2432 43.4595 30.4135 45.6743 30.4135Z" fill="#FDF8D1"/>
<path d="M45.6739 30.4128C47.8842 30.4128 49.676 28.2462 49.676 25.5736C49.676 22.901 47.8842 20.7344 45.6739 20.7344C43.4637 20.7344 41.6719 22.901 41.6719 25.5736C41.6719 28.2462 43.4637 30.4128 45.6739 30.4128Z" fill="#FDF8D1"/>
<path d="M45.6814 30.3966C47.8872 30.3966 49.6754 28.2336 49.6754 25.5655C49.6754 22.8973 47.8872 20.7344 45.6814 20.7344C43.4757 20.7344 41.6875 22.8973 41.6875 25.5655C41.6875 28.2336 43.4757 30.3966 45.6814 30.3966Z" fill="#FDF8D1"/>
<path d="M45.6795 30.3927C47.8799 30.3927 49.6637 28.2341 49.6637 25.5713C49.6637 22.9086 47.8799 20.75 45.6795 20.75C43.4791 20.75 41.6953 22.9086 41.6953 25.5713C41.6953 28.2341 43.4791 30.3927 45.6795 30.3927Z" fill="#FDF8D2"/>
<path d="M45.6792 30.3764C47.8751 30.3764 49.6553 28.2215 49.6553 25.5632C49.6553 22.905 47.8751 20.75 45.6792 20.75C43.4833 20.75 41.7031 22.905 41.7031 25.5632C41.7031 28.2215 43.4833 30.3764 45.6792 30.3764Z" fill="#FDF8D2"/>
<path d="M45.6789 30.3726C47.8703 30.3726 49.6468 28.222 49.6468 25.5691C49.6468 22.9162 47.8703 20.7656 45.6789 20.7656C43.4874 20.7656 41.7109 22.9162 41.7109 25.5691C41.7109 28.222 43.4874 30.3726 45.6789 30.3726Z" fill="#FDF8D3"/>
<path d="M45.6786 30.3563C47.8655 30.3563 49.6384 28.2094 49.6384 25.561C49.6384 22.9126 47.8655 20.7656 45.6786 20.7656C43.4916 20.7656 41.7188 22.9126 41.7188 25.561C41.7188 28.2094 43.4916 30.3563 45.6786 30.3563Z" fill="#FDF8D3"/>
<path d="M45.6766 30.3524C47.8582 30.3524 49.6267 28.2098 49.6267 25.5668C49.6267 22.9238 47.8582 20.7812 45.6766 20.7812C43.4951 20.7812 41.7266 22.9238 41.7266 25.5668C41.7266 28.2098 43.4951 30.3524 45.6766 30.3524Z" fill="#FDF8D3"/>
<path d="M45.6763 30.344C47.8534 30.344 49.6182 28.205 49.6182 25.5665C49.6182 22.928 47.8534 20.7891 45.6763 20.7891C43.4992 20.7891 41.7344 22.928 41.7344 25.5665C41.7344 28.205 43.4992 30.344 45.6763 30.344Z" fill="#FDF8D4"/>
<path d="M45.676 30.3323C47.8486 30.3323 49.6098 28.1977 49.6098 25.5646C49.6098 22.9314 47.8486 20.7969 45.676 20.7969C43.5034 20.7969 41.7422 22.9314 41.7422 25.5646C41.7422 28.1977 43.5034 30.3323 45.676 30.3323Z" fill="#FDF8D4"/>
<path d="M45.6757 30.3238C47.8438 30.3238 49.6013 28.1929 49.6013 25.5643C49.6013 22.9356 47.8438 20.8047 45.6757 20.8047C43.5076 20.8047 41.75 22.9356 41.75 25.5643C41.75 28.1929 43.5076 30.3238 45.6757 30.3238Z" fill="#FDF8D4"/>
<path d="M45.6737 30.3121C47.8364 30.3121 49.5897 28.1856 49.5897 25.5623C49.5897 22.9391 47.8364 20.8125 45.6737 20.8125C43.511 20.8125 41.7578 22.9391 41.7578 25.5623C41.7578 28.1856 43.511 30.3121 45.6737 30.3121Z" fill="#FDF9D5"/>
<path d="M45.6812 30.3037C47.8394 30.3037 49.589 28.1808 49.589 25.562C49.589 22.9432 47.8394 20.8203 45.6812 20.8203C43.523 20.8203 41.7734 22.9432 41.7734 25.562C41.7734 28.1808 43.523 30.3037 45.6812 30.3037Z" fill="#FDF9D5"/>
<path d="M45.6809 30.292C47.8346 30.292 49.5806 28.1734 49.5806 25.5601C49.5806 22.9467 47.8346 20.8281 45.6809 20.8281C43.5272 20.8281 41.7812 22.9467 41.7812 25.5601C41.7812 28.1734 43.5272 30.292 45.6809 30.292Z" fill="#FDF9D5"/>
<path d="M45.6806 30.2836C47.8298 30.2836 49.5721 28.1686 49.5721 25.5598C49.5721 22.9509 47.8298 20.8359 45.6806 20.8359C43.5314 20.8359 41.7891 22.9509 41.7891 25.5598C41.7891 28.1686 43.5314 30.2836 45.6806 30.2836Z" fill="#FDF9D6"/>
<path d="M45.6787 30.2719C47.8225 30.2719 49.5604 28.1613 49.5604 25.5578C49.5604 22.9543 47.8225 20.8438 45.6787 20.8438C43.5348 20.8438 41.7969 22.9543 41.7969 25.5578C41.7969 28.1613 43.5348 30.2719 45.6787 30.2719Z" fill="#FDF9D6"/>
<path d="M45.6783 30.2634C47.8177 30.2634 49.552 28.1565 49.552 25.5575C49.552 22.9585 47.8177 20.8516 45.6783 20.8516C43.539 20.8516 41.8047 22.9585 41.8047 25.5575C41.8047 28.1565 43.539 30.2634 45.6783 30.2634Z" fill="#FDF9D6"/>
<path d="M45.678 30.2517C47.8129 30.2517 49.5436 28.1492 49.5436 25.5556C49.5436 22.9619 47.8129 20.8594 45.678 20.8594C43.5432 20.8594 41.8125 22.9619 41.8125 25.5556C41.8125 28.1492 43.5432 30.2517 45.678 30.2517Z" fill="#FDF9D7"/>
<path d="M45.6777 30.2433C47.8081 30.2433 49.5351 28.1444 49.5351 25.5552C49.5351 22.9661 47.8081 20.8672 45.6777 20.8672C43.5473 20.8672 41.8203 22.9661 41.8203 25.5552C41.8203 28.1444 43.5473 30.2433 45.6777 30.2433Z" fill="#FDF9D7"/>
<path d="M45.6758 30.2316C47.8008 30.2316 49.5234 28.1371 49.5234 25.5533C49.5234 22.9695 47.8008 20.875 45.6758 20.875C43.5508 20.875 41.8281 22.9695 41.8281 25.5533C41.8281 28.1371 43.5508 30.2316 45.6758 30.2316Z" fill="#FDF9D8"/>
<path d="M45.6755 30.2232C47.796 30.2232 49.515 28.1322 49.515 25.553C49.515 22.9737 47.796 20.8828 45.6755 20.8828C43.5549 20.8828 41.8359 22.9737 41.8359 25.553C41.8359 28.1322 43.5549 30.2232 45.6755 30.2232Z" fill="#FDF9D8"/>
<path d="M45.6751 30.2147C47.7912 30.2147 49.5065 28.1274 49.5065 25.5527C49.5065 22.9779 47.7912 20.8906 45.6751 20.8906C43.5591 20.8906 41.8438 22.9779 41.8438 25.5527C41.8438 28.1274 43.5591 30.2147 45.6751 30.2147Z" fill="#FDF9D8"/>
<path d="M45.6748 30.203C47.7864 30.203 49.4981 28.1201 49.4981 25.5507C49.4981 22.9813 47.7864 20.8984 45.6748 20.8984C43.5633 20.8984 41.8516 22.9813 41.8516 25.5507C41.8516 28.1201 43.5633 30.203 45.6748 30.203Z" fill="#FDF9D9"/>
<path d="M45.6807 30.1946C47.7868 30.1946 49.4942 28.1153 49.4942 25.5504C49.4942 22.9855 47.7868 20.9062 45.6807 20.9062C43.5746 20.9062 41.8672 22.9855 41.8672 25.5504C41.8672 28.1153 43.5746 30.1946 45.6807 30.1946Z" fill="#FDF9D9"/>
<path d="M45.6804 30.1829C47.782 30.1829 49.4858 28.108 49.4858 25.5485C49.4858 22.989 47.782 20.9141 45.6804 20.9141C43.5787 20.9141 41.875 22.989 41.875 25.5485C41.875 28.108 43.5787 30.1829 45.6804 30.1829Z" fill="#FDF9D9"/>
<path d="M45.6801 30.1744C47.7772 30.1744 49.4773 28.1032 49.4773 25.5482C49.4773 22.9931 47.7772 20.9219 45.6801 20.9219C43.5829 20.9219 41.8828 22.9931 41.8828 25.5482C41.8828 28.1032 43.5829 30.1744 45.6801 30.1744Z" fill="#FDF9DA"/>
<path d="M45.6798 30.1627C47.7724 30.1627 49.4689 28.0959 49.4689 25.5462C49.4689 22.9966 47.7724 20.9297 45.6798 20.9297C43.5871 20.9297 41.8906 22.9966 41.8906 25.5462C41.8906 28.0959 43.5871 30.1627 45.6798 30.1627Z" fill="#FDFADA"/>
<path d="M45.6778 30.1543C47.7651 30.1543 49.4572 28.091 49.4572 25.5459C49.4572 23.0007 47.7651 20.9375 45.6778 20.9375C43.5905 20.9375 41.8984 23.0007 41.8984 25.5459C41.8984 28.091 43.5905 30.1543 45.6778 30.1543Z" fill="#FDFADA"/>
<path d="M45.6775 30.1426C47.7603 30.1426 49.4487 28.0837 49.4487 25.544C49.4487 23.0042 47.7603 20.9453 45.6775 20.9453C43.5947 20.9453 41.9062 23.0042 41.9062 25.544C41.9062 28.0837 43.5947 30.1426 45.6775 30.1426Z" fill="#FDFADB"/>
<path d="M45.6772 30.1342C47.7555 30.1342 49.4403 28.0789 49.4403 25.5436C49.4403 23.0084 47.7555 20.9531 45.6772 20.9531C43.5989 20.9531 41.9141 23.0084 41.9141 25.5436C41.9141 28.0789 43.5989 30.1342 45.6772 30.1342Z" fill="#FDFADB"/>
<path d="M45.6752 30.1225C47.7482 30.1225 49.4286 28.0716 49.4286 25.5417C49.4286 23.0118 47.7482 20.9609 45.6752 20.9609C43.6023 20.9609 41.9219 23.0118 41.9219 25.5417C41.9219 28.0716 43.6023 30.1225 45.6752 30.1225Z" fill="#FDFADB"/>
<path d="M45.6749 30.1218C47.7434 30.1218 49.4202 28.0746 49.4202 25.5492C49.4202 23.0238 47.7434 20.9766 45.6749 20.9766C43.6065 20.9766 41.9297 23.0238 41.9297 25.5492C41.9297 28.0746 43.6065 30.1218 45.6749 30.1218Z" fill="#FDFADC"/>
<path d="M45.6746 30.1101C47.7386 30.1101 49.4117 28.0673 49.4117 25.5473C49.4117 23.0272 47.7386 20.9844 45.6746 20.9844C43.6107 20.9844 41.9375 23.0272 41.9375 25.5473C41.9375 28.0673 43.6107 30.1101 45.6746 30.1101Z" fill="#FDFADC"/>
<path d="M45.6743 30.1017C47.7338 30.1017 49.4033 28.0625 49.4033 25.5469C49.4033 23.0314 47.7338 20.9922 45.6743 20.9922C43.6148 20.9922 41.9453 23.0314 41.9453 25.5469C41.9453 28.0625 43.6148 30.1017 45.6743 30.1017Z" fill="#FDFADC"/>
<path d="M45.6802 30.09C47.7342 30.09 49.3994 28.0551 49.3994 25.545C49.3994 23.0349 47.7342 21 45.6802 21C43.6261 21 41.9609 23.0349 41.9609 25.545C41.9609 28.0551 43.6261 30.09 45.6802 30.09Z" fill="#FDFADD"/>
<path d="M45.6799 30.0816C47.7294 30.0816 49.391 28.0503 49.391 25.5447C49.391 23.039 47.7294 21.0078 45.6799 21.0078C43.6303 21.0078 41.9688 23.039 41.9688 25.5447C41.9688 28.0503 43.6303 30.0816 45.6799 30.0816Z" fill="#FDFADD"/>
<path d="M45.6795 30.0699C47.7246 30.0699 49.3825 28.043 49.3825 25.5427C49.3825 23.0425 47.7246 21.0156 45.6795 21.0156C43.6344 21.0156 41.9766 23.0425 41.9766 25.5427C41.9766 28.043 43.6344 30.0699 45.6795 30.0699Z" fill="#FCFADE"/>
<path d="M45.6792 30.0614C47.7198 30.0614 49.3741 28.0382 49.3741 25.5424C49.3741 23.0467 47.7198 21.0234 45.6792 21.0234C43.6386 21.0234 41.9844 23.0467 41.9844 25.5424C41.9844 28.0382 43.6386 30.0614 45.6792 30.0614Z" fill="#FCFADE"/>
<path d="M45.6773 30.053C47.7125 30.053 49.3624 28.0334 49.3624 25.5421C49.3624 23.0508 47.7125 21.0312 45.6773 21.0312C43.6421 21.0312 41.9922 23.0508 41.9922 25.5421C41.9922 28.0334 43.6421 30.053 45.6773 30.053Z" fill="#FCFADE"/>
<path d="M45.677 30.0413C47.7077 30.0413 49.3539 28.0261 49.3539 25.5402C49.3539 23.0543 47.7077 21.0391 45.677 21.0391C43.6462 21.0391 42 23.0543 42 25.5402C42 28.0261 43.6462 30.0413 45.677 30.0413Z" fill="#FCFADF"/>
<path d="M45.6767 30.0328C47.7029 30.0328 49.3455 28.0213 49.3455 25.5399C49.3455 23.0585 47.7029 21.0469 45.6767 21.0469C43.6504 21.0469 42.0078 23.0585 42.0078 25.5399C42.0078 28.0213 43.6504 30.0328 45.6767 30.0328Z" fill="#FCFADF"/>
<path d="M45.6763 30.0212C47.6981 30.0212 49.337 28.0139 49.337 25.5379C49.337 23.0619 47.6981 21.0547 45.6763 21.0547C43.6546 21.0547 42.0156 23.0619 42.0156 25.5379C42.0156 28.0139 43.6546 30.0212 45.6763 30.0212Z" fill="#FCFADF"/>
<path d="M45.6744 30.0127C47.6908 30.0127 49.3254 28.0091 49.3254 25.5376C49.3254 23.0661 47.6908 21.0625 45.6744 21.0625C43.658 21.0625 42.0234 23.0661 42.0234 25.5376C42.0234 28.0091 43.658 30.0127 45.6744 30.0127Z" fill="#FCFBE0"/>
<path d="M45.6741 30.001C47.686 30.001 49.3169 28.0018 49.3169 25.5357C49.3169 23.0695 47.686 21.0703 45.6741 21.0703C43.6622 21.0703 42.0312 23.0695 42.0312 25.5357C42.0312 28.0018 43.6622 30.001 45.6741 30.001Z" fill="#FCFBE0"/>
<path d="M45.6738 29.9926C47.6812 29.9926 49.3085 27.997 49.3085 25.5353C49.3085 23.0737 47.6812 21.0781 45.6738 21.0781C43.6664 21.0781 42.0391 23.0737 42.0391 25.5353C42.0391 27.997 43.6664 29.9926 45.6738 29.9926Z" fill="#FCFBE0"/>
<path d="M45.6813 29.9809C47.6842 29.9809 49.3078 27.9897 49.3078 25.5334C49.3078 23.0771 47.6842 21.0859 45.6813 21.0859C43.6784 21.0859 42.0547 23.0771 42.0547 25.5334C42.0547 27.9897 43.6784 29.9809 45.6813 29.9809Z" fill="#FCFBE1"/>
<path d="M45.6793 29.9724C47.6768 29.9724 49.2961 27.9849 49.2961 25.5331C49.2961 23.0813 47.6768 21.0938 45.6793 21.0938C43.6818 21.0938 42.0625 23.0813 42.0625 25.5331C42.0625 27.9849 43.6818 29.9724 45.6793 29.9724Z" fill="#FCFBE1"/>
<path d="M45.679 29.9607C47.672 29.9607 49.2877 27.9775 49.2877 25.5312C49.2877 23.0848 47.672 21.1016 45.679 21.1016C43.686 21.1016 42.0703 23.0848 42.0703 25.5312C42.0703 27.9775 43.686 29.9607 45.679 29.9607Z" fill="#FCFBE1"/>
<path d="M45.6787 29.9523C47.6672 29.9523 49.2793 27.9727 49.2793 25.5308C49.2793 23.0889 47.6672 21.1094 45.6787 21.1094C43.6902 21.1094 42.0781 23.0889 42.0781 25.5308C42.0781 27.9727 43.6902 29.9523 45.6787 29.9523Z" fill="#FCFBE2"/>
<path d="M45.6784 29.9406C47.6624 29.9406 49.2708 27.9654 49.2708 25.5289C49.2708 23.0924 47.6624 21.1172 45.6784 21.1172C43.6943 21.1172 42.0859 23.0924 42.0859 25.5289C42.0859 27.9654 43.6943 29.9406 45.6784 29.9406Z" fill="#FCFBE2"/>
<path d="M45.6764 29.9322C47.6551 29.9322 49.2591 27.9606 49.2591 25.5286C49.2591 23.0966 47.6551 21.125 45.6764 21.125C43.6978 21.125 42.0938 23.0966 42.0938 25.5286C42.0938 27.9606 43.6978 29.9322 45.6764 29.9322Z" fill="#FCFBE2"/>
<path d="M45.6761 29.9205C47.6503 29.9205 49.2507 27.9533 49.2507 25.5266C49.2507 23.1 47.6503 21.1328 45.6761 21.1328C43.7019 21.1328 42.1016 23.1 42.1016 25.5266C42.1016 27.9533 43.7019 29.9205 45.6761 29.9205Z" fill="#FCFBE3"/>
<path d="M45.6758 29.912C47.6455 29.912 49.2422 27.9485 49.2422 25.5263C49.2422 23.1042 47.6455 21.1406 45.6758 21.1406C43.7061 21.1406 42.1094 23.1042 42.1094 25.5263C42.1094 27.9485 43.7061 29.912 45.6758 29.912Z" fill="#FCFBE3"/>
<path d="M45.6755 29.9003C47.6407 29.9003 49.2338 27.9412 49.2338 25.5244C49.2338 23.1076 47.6407 21.1484 45.6755 21.1484C43.7103 21.1484 42.1172 23.1076 42.1172 25.5244C42.1172 27.9412 43.7103 29.9003 45.6755 29.9003Z" fill="#FCFBE4"/>
<path d="M45.6814 29.8919C47.6412 29.8919 49.2299 27.9364 49.2299 25.5241C49.2299 23.1118 47.6412 21.1562 45.6814 21.1562C43.7215 21.1562 42.1328 23.1118 42.1328 25.5241C42.1328 27.9364 43.7215 29.8919 45.6814 29.8919Z" fill="#FCFBE4"/>
<path d="M45.681 29.8802C47.6364 29.8802 49.2215 27.929 49.2215 25.5221C49.2215 23.1152 47.6364 21.1641 45.681 21.1641C43.7257 21.1641 42.1406 23.1152 42.1406 25.5221C42.1406 27.929 43.7257 29.8802 45.681 29.8802Z" fill="#FCFBE4"/>
<path d="M45.6807 29.8718C47.6316 29.8718 49.213 27.9242 49.213 25.5218C49.213 23.1194 47.6316 21.1719 45.6807 21.1719C43.7299 21.1719 42.1484 23.1194 42.1484 25.5218C42.1484 27.9242 43.7299 29.8718 45.6807 29.8718Z" fill="#FCFBE5"/>
<path d="M45.6804 29.8633C47.6268 29.8633 49.2046 27.9194 49.2046 25.5215C49.2046 23.1236 47.6268 21.1797 45.6804 21.1797C43.7341 21.1797 42.1562 23.1236 42.1562 25.5215C42.1562 27.9194 43.7341 29.8633 45.6804 29.8633Z" fill="#FCFCE5"/>
<path d="M45.6785 29.8516C47.6194 29.8516 49.1929 27.9121 49.1929 25.5196C49.1929 23.127 47.6194 21.1875 45.6785 21.1875C43.7375 21.1875 42.1641 23.127 42.1641 25.5196C42.1641 27.9121 43.7375 29.8516 45.6785 29.8516Z" fill="#FCFCE5"/>
<path d="M45.6782 29.8432C47.6146 29.8432 49.1844 27.9073 49.1844 25.5192C49.1844 23.1312 47.6146 21.1953 45.6782 21.1953C43.7417 21.1953 42.1719 23.1312 42.1719 25.5192C42.1719 27.9073 43.7417 29.8432 45.6782 29.8432Z" fill="#FCFCE6"/>
<path d="M45.6778 29.8315C47.6098 29.8315 49.176 27.9 49.176 25.5173C49.176 23.1346 47.6098 21.2031 45.6778 21.2031C43.7459 21.2031 42.1797 23.1346 42.1797 25.5173C42.1797 27.9 43.7459 29.8315 45.6778 29.8315Z" fill="#FCFCE6"/>
<path d="M45.6775 29.8309C47.605 29.8309 49.1676 27.903 49.1676 25.5248C49.1676 23.1466 47.605 21.2188 45.6775 21.2188C43.75 21.2188 42.1875 23.1466 42.1875 25.5248C42.1875 27.903 43.75 29.8309 45.6775 29.8309Z" fill="#FCFCE6"/>
<path d="M45.6756 29.8192C47.5977 29.8192 49.1559 27.8956 49.1559 25.5229C49.1559 23.1501 47.5977 21.2266 45.6756 21.2266C43.7535 21.2266 42.1953 23.1501 42.1953 25.5229C42.1953 27.8956 43.7535 29.8192 45.6756 29.8192Z" fill="#FCFCE7"/>
<path d="M45.6753 29.8107C47.5929 29.8107 49.1474 27.8908 49.1474 25.5225C49.1474 23.1543 47.5929 21.2344 45.6753 21.2344C43.7577 21.2344 42.2031 23.1543 42.2031 25.5225C42.2031 27.8908 43.7577 29.8107 45.6753 29.8107Z" fill="#FCFCE7"/>
<path d="M45.675 29.799C47.5881 29.799 49.139 27.8835 49.139 25.5206C49.139 23.1577 47.5881 21.2422 45.675 21.2422C43.7618 21.2422 42.2109 23.1577 42.2109 25.5206C42.2109 27.8835 43.7618 29.799 45.675 29.799Z" fill="#FCFCE7"/>
<path d="M45.6808 29.7906C47.5886 29.7906 49.1351 27.8787 49.1351 25.5203C49.1351 23.1619 47.5886 21.25 45.6808 21.25C43.7731 21.25 42.2266 23.1619 42.2266 25.5203C42.2266 27.8787 43.7731 29.7906 45.6808 29.7906Z" fill="#FCFCE8"/>
<path d="M45.6805 29.7789C47.5838 29.7789 49.1267 27.8714 49.1267 25.5183C49.1267 23.1653 47.5838 21.2578 45.6805 21.2578C43.7773 21.2578 42.2344 23.1653 42.2344 25.5183C42.2344 27.8714 43.7773 29.7789 45.6805 29.7789Z" fill="#FCFCE8"/>
<path d="M45.6802 29.7704C47.579 29.7704 49.1182 27.8666 49.1182 25.518C49.1182 23.1695 47.579 21.2656 45.6802 21.2656C43.7814 21.2656 42.2422 23.1695 42.2422 25.518C42.2422 27.8666 43.7814 29.7704 45.6802 29.7704Z" fill="#FCFCE8"/>
<path d="M45.6799 29.7587C47.5742 29.7587 49.1098 27.8592 49.1098 25.5161C49.1098 23.1729 47.5742 21.2734 45.6799 21.2734C43.7856 21.2734 42.25 23.1729 42.25 25.5161C42.25 27.8592 43.7856 29.7587 45.6799 29.7587Z" fill="#FCFCE9"/>
<path d="M45.6779 29.7503C47.5668 29.7503 49.0981 27.8544 49.0981 25.5158C49.0981 23.1771 47.5668 21.2812 45.6779 21.2812C43.7891 21.2812 42.2578 23.1771 42.2578 25.5158C42.2578 27.8544 43.7891 29.7503 45.6779 29.7503Z" fill="#FCFCE9"/>
<path d="M45.6776 29.7386C47.562 29.7386 49.0896 27.8471 49.0896 25.5138C49.0896 23.1806 47.562 21.2891 45.6776 21.2891C43.7932 21.2891 42.2656 23.1806 42.2656 25.5138C42.2656 27.8471 43.7932 29.7386 45.6776 29.7386Z" fill="#FCFCEA"/>
<path d="M45.6773 29.7302C47.5572 29.7302 49.0812 27.8423 49.0812 25.5135C49.0812 23.1847 47.5572 21.2969 45.6773 21.2969C43.7974 21.2969 42.2734 23.1847 42.2734 25.5135C42.2734 27.8423 43.7974 29.7302 45.6773 29.7302Z" fill="#FCFCEA"/>
<path d="M45.677 29.7185C47.5524 29.7185 49.0728 27.835 49.0728 25.5116C49.0728 23.1882 47.5524 21.3047 45.677 21.3047C43.8016 21.3047 42.2812 23.1882 42.2812 25.5116C42.2812 27.835 43.8016 29.7185 45.677 29.7185Z" fill="#FCFCEA"/>
<path d="M45.6751 29.71C47.5451 29.71 49.061 27.8302 49.061 25.5113C49.061 23.1924 47.5451 21.3125 45.6751 21.3125C43.805 21.3125 42.2891 23.1924 42.2891 25.5113C42.2891 27.8302 43.805 29.71 45.6751 29.71Z" fill="#FCFDEB"/>
<path d="M45.6747 29.6983C47.5403 29.6983 49.0526 27.8228 49.0526 25.5093C49.0526 23.1958 47.5403 21.3203 45.6747 21.3203C43.8092 21.3203 42.2969 23.1958 42.2969 25.5093C42.2969 27.8228 43.8092 29.6983 45.6747 29.6983Z" fill="#FCFDEB"/>
<path d="M45.6744 29.6899C47.5355 29.6899 49.0442 27.818 49.0442 25.509C49.0442 23.2 47.5355 21.3281 45.6744 21.3281C43.8134 21.3281 42.3047 23.2 42.3047 25.509C42.3047 27.818 43.8134 29.6899 45.6744 29.6899Z" fill="#FCFDEB"/>
<path d="M45.6741 29.6814C47.5307 29.6814 49.0357 27.8132 49.0357 25.5087C49.0357 23.2041 47.5307 21.3359 45.6741 21.3359C43.8175 21.3359 42.3125 23.2041 42.3125 25.5087C42.3125 27.8132 43.8175 29.6814 45.6741 29.6814Z" fill="#FCFDEC"/>
<path d="M45.68 29.6698C47.5312 29.6698 49.0318 27.8059 49.0318 25.5068C49.0318 23.2076 47.5312 21.3438 45.68 21.3438C43.8288 21.3438 42.3281 23.2076 42.3281 25.5068C42.3281 27.8059 43.8288 29.6698 45.68 29.6698Z" fill="#FCFDEC"/>
<path d="M45.6797 29.6613C47.5264 29.6613 49.0234 27.8011 49.0234 25.5064C49.0234 23.2118 47.5264 21.3516 45.6797 21.3516C43.833 21.3516 42.3359 23.2118 42.3359 25.5064C42.3359 27.8011 43.833 29.6613 45.6797 29.6613Z" fill="#FCFDEC"/>
<path d="M45.6794 29.6496C47.5216 29.6496 49.015 27.7938 49.015 25.5045C49.015 23.2152 47.5216 21.3594 45.6794 21.3594C43.8371 21.3594 42.3438 23.2152 42.3438 25.5045C42.3438 27.7938 43.8371 29.6496 45.6794 29.6496Z" fill="#FCFDED"/>
<path d="M45.679 29.6412C47.5168 29.6412 49.0065 27.789 49.0065 25.5042C49.0065 23.2194 47.5168 21.3672 45.679 21.3672C43.8413 21.3672 42.3516 23.2194 42.3516 25.5042C42.3516 27.789 43.8413 29.6412 45.679 29.6412Z" fill="#FCFDED"/>
<path d="M45.6771 29.6295C47.5094 29.6295 48.9948 27.7817 48.9948 25.5022C48.9948 23.2228 47.5094 21.375 45.6771 21.375C43.8448 21.375 42.3594 23.2228 42.3594 25.5022C42.3594 27.7817 43.8448 29.6295 45.6771 29.6295Z" fill="#FCFDED"/>
<path d="M45.6768 29.621C47.5046 29.621 48.9864 27.7768 48.9864 25.5019C48.9864 23.227 47.5046 21.3828 45.6768 21.3828C43.8489 21.3828 42.3672 23.227 42.3672 25.5019C42.3672 27.7768 43.8489 29.621 45.6768 29.621Z" fill="#FCFDEE"/>
<path d="M45.6765 29.6093C47.4998 29.6093 48.9779 27.7695 48.9779 25.5C48.9779 23.2304 47.4998 21.3906 45.6765 21.3906C43.8531 21.3906 42.375 23.2304 42.375 25.5C42.375 27.7695 43.8531 29.6093 45.6765 29.6093Z" fill="#FCFDEE"/>
<path d="M45.6762 29.6009C47.495 29.6009 48.9695 27.7647 48.9695 25.4997C48.9695 23.2346 47.495 21.3984 45.6762 21.3984C43.8573 21.3984 42.3828 23.2346 42.3828 25.4997C42.3828 27.7647 43.8573 29.6009 45.6762 29.6009Z" fill="#FCFDEE"/>
<path d="M45.6742 29.5892C47.4877 29.5892 48.9578 27.7574 48.9578 25.4977C48.9578 23.2381 47.4877 21.4062 45.6742 21.4062C43.8607 21.4062 42.3906 23.2381 42.3906 25.4977C42.3906 27.7574 43.8607 29.5892 45.6742 29.5892Z" fill="#FCFDEF"/>
<path d="M45.6739 29.5808C47.4829 29.5808 48.9494 27.7526 48.9494 25.4974C48.9494 23.2422 47.4829 21.4141 45.6739 21.4141C43.8649 21.4141 42.3984 23.2422 42.3984 25.4974C42.3984 27.7526 43.8649 29.5808 45.6739 29.5808Z" fill="#FBFDEF"/>
<path d="M45.6814 29.5769C47.4859 29.5769 48.9487 27.7531 48.9487 25.5033C48.9487 23.2535 47.4859 21.4297 45.6814 21.4297C43.8769 21.4297 42.4141 23.2535 42.4141 25.5033C42.4141 27.7531 43.8769 29.5769 45.6814 29.5769Z" fill="#FBFDF0"/>
<path d="M45.6811 29.5606C47.4811 29.5606 48.9403 27.7405 48.9403 25.4952C48.9403 23.2499 47.4811 21.4297 45.6811 21.4297C43.8811 21.4297 42.4219 23.2499 42.4219 25.4952C42.4219 27.7405 43.8811 29.5606 45.6811 29.5606Z" fill="#FBFEF0"/>
<path d="M45.6791 29.5567C47.4738 29.5567 48.9286 27.7409 48.9286 25.501C48.9286 23.2611 47.4738 21.4453 45.6791 21.4453C43.8845 21.4453 42.4297 23.2611 42.4297 25.501C42.4297 27.7409 43.8845 29.5567 45.6791 29.5567Z" fill="#FBFEF0"/>
<path d="M45.6788 29.5405C47.469 29.5405 48.9201 27.7283 48.9201 25.4929C48.9201 23.2575 47.469 21.4453 45.6788 21.4453C43.8887 21.4453 42.4375 23.2575 42.4375 25.4929C42.4375 27.7283 43.8887 29.5405 45.6788 29.5405Z" fill="#FBFEF1"/>
<path d="M45.6785 29.5366C47.4642 29.5366 48.9117 27.7288 48.9117 25.4988C48.9117 23.2687 47.4642 21.4609 45.6785 21.4609C43.8929 21.4609 42.4453 23.2687 42.4453 25.4988C42.4453 27.7288 43.8929 29.5366 45.6785 29.5366Z" fill="#FBFEF1"/>
<path d="M45.6782 29.5282C47.4593 29.5282 48.9033 27.724 48.9033 25.4985C48.9033 23.2729 47.4593 21.4688 45.6782 21.4688C43.897 21.4688 42.4531 23.2729 42.4531 25.4985C42.4531 27.724 43.897 29.5282 45.6782 29.5282Z" fill="#FBFEF1"/>
<path d="M45.6763 29.5197C47.452 29.5197 48.8916 27.7192 48.8916 25.4981C48.8916 23.2771 47.452 21.4766 45.6763 21.4766C43.9005 21.4766 42.4609 23.2771 42.4609 25.4981C42.4609 27.7192 43.9005 29.5197 45.6763 29.5197Z" fill="#FBFEF2"/>
<path d="M45.6759 29.508C47.4472 29.508 48.8831 27.7119 48.8831 25.4962C48.8831 23.2805 47.4472 21.4844 45.6759 21.4844C43.9047 21.4844 42.4688 23.2805 42.4688 25.4962C42.4688 27.7119 43.9047 29.508 45.6759 29.508Z" fill="#FBFEF2"/>
<path d="M45.6756 29.4996C47.4424 29.4996 48.8747 27.7071 48.8747 25.4959C48.8747 23.2847 47.4424 21.4922 45.6756 21.4922C43.9088 21.4922 42.4766 23.2847 42.4766 25.4959C42.4766 27.7071 43.9088 29.4996 45.6756 29.4996Z" fill="#FBFEF2"/>
<path d="M45.6753 29.4879C47.4376 29.4879 48.8662 27.6997 48.8662 25.4939C48.8662 23.2882 47.4376 21.5 45.6753 21.5C43.913 21.5 42.4844 23.2882 42.4844 25.4939C42.4844 27.6997 43.913 29.4879 45.6753 29.4879Z" fill="#FBFEF3"/>
<path d="M45.6812 29.4794C47.4381 29.4794 48.8624 27.6949 48.8624 25.4936C48.8624 23.2923 47.4381 21.5078 45.6812 21.5078C43.9243 21.5078 42.5 23.2923 42.5 25.4936C42.5 27.6949 43.9243 29.4794 45.6812 29.4794Z" fill="#FBFEF3"/>
<path d="M45.6809 29.4678C47.4333 29.4678 48.8539 27.6876 48.8539 25.4917C48.8539 23.2958 47.4333 21.5156 45.6809 21.5156C43.9284 21.5156 42.5078 23.2958 42.5078 25.4917C42.5078 27.6876 43.9284 29.4678 45.6809 29.4678Z" fill="#FBFEF3"/>
<path d="M45.6805 29.4593C47.4285 29.4593 48.8455 27.6828 48.8455 25.4914C48.8455 23.2999 47.4285 21.5234 45.6805 21.5234C43.9326 21.5234 42.5156 23.2999 42.5156 25.4914C42.5156 27.6828 43.9326 29.4593 45.6805 29.4593Z" fill="#FBFEF4"/>
<path d="M45.6786 29.4476C47.4212 29.4476 48.8338 27.6755 48.8338 25.4894C48.8338 23.3034 47.4212 21.5312 45.6786 21.5312C43.9361 21.5312 42.5234 23.3034 42.5234 25.4894C42.5234 27.6755 43.9361 29.4476 45.6786 29.4476Z" fill="#FBFEF4"/>
<path d="M45.6783 29.4392C47.4164 29.4392 48.8253 27.6707 48.8253 25.4891C48.8253 23.3076 47.4164 21.5391 45.6783 21.5391C43.9402 21.5391 42.5312 23.3076 42.5312 25.4891C42.5312 27.6707 43.9402 29.4392 45.6783 29.4392Z" fill="#FBFEF4"/>
<path d="M45.678 29.4275C47.4116 29.4275 48.8169 27.6633 48.8169 25.4872C48.8169 23.311 47.4116 21.5469 45.678 21.5469C43.9444 21.5469 42.5391 23.311 42.5391 25.4872C42.5391 27.6633 43.9444 29.4275 45.678 29.4275Z" fill="#FBFEF5"/>
<path d="M45.6777 29.419C47.4067 29.419 48.8085 27.6585 48.8085 25.4869C48.8085 23.3152 47.4067 21.5547 45.6777 21.5547C43.9486 21.5547 42.5469 23.3152 42.5469 25.4869C42.5469 27.6585 43.9486 29.419 45.6777 29.419Z" fill="#FBFEF5"/>
<path d="M45.6757 29.4073C47.3994 29.4073 48.7968 27.6512 48.7968 25.4849C48.7968 23.3186 47.3994 21.5625 45.6757 21.5625C43.952 21.5625 42.5547 23.3186 42.5547 25.4849C42.5547 27.6512 43.952 29.4073 45.6757 29.4073Z" fill="#FBFFF6"/>
<path d="M45.6754 29.3989C47.3946 29.3989 48.7883 27.6464 48.7883 25.4846C48.7883 23.3228 47.3946 21.5703 45.6754 21.5703C43.9562 21.5703 42.5625 23.3228 42.5625 25.4846C42.5625 27.6464 43.9562 29.3989 45.6754 29.3989Z" fill="#FBFFF6"/>
<path d="M45.6751 29.3872C47.3898 29.3872 48.7799 27.6391 48.7799 25.4827C48.7799 23.3262 47.3898 21.5781 45.6751 21.5781C43.9604 21.5781 42.5703 23.3262 42.5703 25.4827C42.5703 27.6391 43.9604 29.3872 45.6751 29.3872Z" fill="#FBFFF6"/>
<path d="M45.6748 29.3788C47.385 29.3788 48.7714 27.6343 48.7714 25.4824C48.7714 23.3304 47.385 21.5859 45.6748 21.5859C43.9645 21.5859 42.5781 23.3304 42.5781 25.4824C42.5781 27.6343 43.9645 29.3788 45.6748 29.3788Z" fill="#FBFFF7"/>
<path d="M45.6806 29.3671C47.3855 29.3671 48.7675 27.627 48.7675 25.4804C48.7675 23.3339 47.3855 21.5938 45.6806 21.5938C43.9758 21.5938 42.5938 23.3339 42.5938 25.4804C42.5938 27.627 43.9758 29.3671 45.6806 29.3671Z" fill="#FBFFF7"/>
<path d="M45.6803 29.3586C47.3807 29.3586 48.7591 27.6222 48.7591 25.4801C48.7591 23.338 47.3807 21.6016 45.6803 21.6016C43.98 21.6016 42.6016 23.338 42.6016 25.4801C42.6016 27.6222 43.98 29.3586 45.6803 29.3586Z" fill="#FBFFF7"/>
<path d="M45.68 29.3469C47.3759 29.3469 48.7507 27.6148 48.7507 25.4782C48.7507 23.3415 47.3759 21.6094 45.68 21.6094C43.9842 21.6094 42.6094 23.3415 42.6094 25.4782C42.6094 27.6148 43.9842 29.3469 45.68 29.3469Z" fill="#FBFFF8"/>
<path d="M45.6797 29.3385C47.3711 29.3385 48.7422 27.61 48.7422 25.4778C48.7422 23.3457 47.3711 21.6172 45.6797 21.6172C43.9883 21.6172 42.6172 23.3457 42.6172 25.4778C42.6172 27.61 43.9883 29.3385 45.6797 29.3385Z" fill="#FBFFF8"/>
<path d="M56.2357 26.3306H45.1935H35.2891L45.5966 13.6953L56.2357 26.3306Z" fill="#141414"/>
<path d="M47.3043 15.6071V13.2989C47.3043 12.6031 46.5776 12.0391 45.5974 12.0391C44.6172 12.0391 43.8906 12.6031 43.8906 13.2989V15.6071H47.3043Z" fill="#4D4D4D"/>
</g>
<defs>
<clipPath id="clip0_3876_92574">
<rect width="105" height="74.4496" fill="white"/>
</clipPath>
</defs>
</svg>
