<svg width="137" height="102" viewBox="0 0 137 102" fill="none" xmlns="http://www.w3.org/2000/svg">
<g clip-path="url(#clip0_3876_92301)">
<path d="M120.712 33.2734H16.2344V84.1264H120.712V33.2734Z" stroke="#141414" stroke-width="3.35" stroke-linecap="round" stroke-linejoin="round"/>
<path d="M67.7506 33.6016H16.3047V84.1258H67.7506V33.6016Z" stroke="#141414" stroke-width="3.35" stroke-linecap="round" stroke-linejoin="round"/>
<path d="M120.519 33.3672H67.6875V58.8452H120.519V33.3672Z" stroke="#141414" stroke-width="3.35" stroke-linecap="round" stroke-linejoin="round"/>
<path d="M120.519 58.6484H67.6875V84.1265H120.519V58.6484Z" stroke="#141414" stroke-width="3.35" stroke-linecap="round" stroke-linejoin="round"/>
<path d="M67.4912 54.0938H63.1406V63.2976H67.4912V54.0938Z" fill="#141414"/>
<path d="M67.4912 54.0938H63.1406V63.2976H67.4912V54.0938Z" stroke="#141414" stroke-width="3.35" stroke-linecap="round" stroke-linejoin="round"/>
<path d="M96.0824 64.674C96.0807 65.1983 95.8717 65.7006 95.501 66.0713C95.1303 66.442 94.628 66.651 94.1037 66.6527C93.5789 66.6527 93.0756 66.4442 92.7045 66.0732C92.3335 65.7021 92.125 65.1988 92.125 64.674C92.1242 64.4139 92.1747 64.1563 92.2739 63.9158C92.373 63.6754 92.5188 63.4569 92.7027 63.273C92.8866 63.0891 93.105 62.9434 93.3455 62.8442C93.5859 62.7451 93.8436 62.6945 94.1037 62.6953C94.6285 62.6953 95.1317 62.9038 95.5028 63.2749C95.8739 63.646 96.0824 64.1492 96.0824 64.674Z" fill="#141414"/>
<path d="M96.0824 40.1349C96.0807 40.6592 95.8717 41.1615 95.501 41.5322C95.1303 41.9029 94.628 42.1119 94.1037 42.1136C93.5789 42.1136 93.0756 41.9052 92.7045 41.5341C92.3335 41.163 92.125 40.6597 92.125 40.1349C92.1242 39.8749 92.1747 39.6172 92.2739 39.3767C92.373 39.1363 92.5188 38.9178 92.7027 38.7339C92.8866 38.55 93.105 38.4043 93.3455 38.3051C93.5859 38.206 93.8436 38.1554 94.1037 38.1563C94.6285 38.1563 95.1317 38.3647 95.5028 38.7358C95.8739 39.1069 96.0824 39.6102 96.0824 40.1349Z" fill="#141414"/>
<path d="M117.667 96.2686H115.579C115.343 96.2652 115.115 96.181 114.934 96.0301L100.812 84.4609H118.717V95.2245C118.717 95.3622 118.69 95.4985 118.637 95.6256C118.584 95.7527 118.507 95.868 118.409 95.9651C118.312 96.0621 118.196 96.1389 118.068 96.191C117.941 96.2431 117.804 96.2695 117.667 96.2686Z" fill="#141414" stroke="#141414" stroke-width="3.35" stroke-linecap="round" stroke-linejoin="round"/>
<path d="M19.2174 96.2686H21.3057C21.5414 96.2652 21.7689 96.181 21.9502 96.0301L36.0717 84.4609H18.1797V95.2245C18.1797 95.5003 18.2888 95.7649 18.4832 95.9606C18.6776 96.1562 18.9416 96.2669 19.2174 96.2686Z" fill="#141414" stroke="#141414" stroke-width="3.35" stroke-linecap="round" stroke-linejoin="round"/>
<path d="M108.773 33.0804C108.804 32.8281 108.819 32.5741 108.818 32.3198C108.818 30.5318 108.108 28.817 106.843 27.5527C105.579 26.2884 103.864 25.5781 102.076 25.5781C101.19 25.5773 100.313 25.751 99.4944 26.0895C98.6757 26.4279 97.9317 26.9243 97.305 27.5504C96.6783 28.1766 96.1811 28.9201 95.8419 29.7384C95.5027 30.5568 95.3281 31.434 95.3281 32.3198C95.3301 32.574 95.3452 32.8278 95.3732 33.0804H108.773Z" fill="#141414" stroke="#141414" stroke-width="3.35" stroke-linecap="round" stroke-linejoin="round"/>
<path d="M102.086 25.3167V17.75" stroke="#141414" stroke-width="3.35" stroke-linecap="round" stroke-linejoin="round"/>
<path d="M113.819 17.2119H90.3516L96.829 1.08594H107.348L113.819 17.2119Z" fill="#141414"/>
<path d="M113.819 17.2119H90.3516L96.829 1.08594H107.348L113.819 17.2119Z" stroke="#141414" stroke-width="3.35" stroke-linecap="round" stroke-linejoin="round"/>
<path d="M1.07812 96.8906C7.81985 96.8906 7.81983 100.113 14.5616 100.113C21.3033 100.113 21.2968 96.8906 28.0321 96.8906C34.7674 96.8906 34.7738 100.113 41.5091 100.113C48.2444 100.113 48.2508 96.8906 54.9925 96.8906C61.7342 96.8906 61.7278 100.113 68.4695 100.113C75.2113 100.113 75.2112 96.8906 81.9465 96.8906C88.6818 96.8906 88.6883 100.113 95.43 100.113C102.172 100.113 102.172 96.8906 108.907 96.8906C115.642 96.8906 115.649 100.113 122.39 100.113C129.132 100.113 129.132 96.8906 135.874 96.8906" stroke="#141414" stroke-width="3.35" stroke-linecap="round" stroke-linejoin="round"/>
<path d="M24.4766 24.2656H45.8039" stroke="#141414" stroke-width="3.35" stroke-linecap="round" stroke-linejoin="round"/>
<path d="M132.953 63.4455L137 59.3984L132.953 55.3514L128.906 59.3984L132.953 63.4455Z" fill="#141414"/>
<path d="M4.69515 63.4377L8.74219 59.3906L4.69515 55.3436L0.648113 59.3906L4.69515 63.4377Z" fill="#141414"/>
</g>
<defs>
<clipPath id="clip0_3876_92301">
<rect width="137" height="101.21" fill="white"/>
</clipPath>
</defs>
</svg>
