<svg width="95" height="106" viewBox="0 0 95 106" fill="none" xmlns="http://www.w3.org/2000/svg">
<g clip-path="url(#clip0_3876_92339)">
<path d="M94.2059 60.1938L88.8906 63.8264C88.864 63.8412 88.8386 63.8581 88.8148 63.877L78.7041 70.7956L78.6318 70.8462L68.4814 77.7684L68.4309 77.8045L58.2768 84.7412L58.2443 84.7664L47.1045 92.3784L35.961 84.7664C35.9516 84.7563 35.9407 84.7478 35.9285 84.7412L29.2266 80.1661L90.9055 44.5547L94.2059 60.1938Z" fill="#141414"/>
<path d="M90.3671 42.034L26.9801 78.6312L25.7777 77.8115L25.7235 77.7754L15.5767 70.8423C15.5767 70.8423 15.5405 70.817 15.5225 70.8026L14.5078 70.1129L87.4024 28.0234L90.3671 42.034Z" fill="#141414"/>
<path d="M86.8697 25.4925L12.2598 68.5786L5.39899 63.8843L5.32315 63.8374L0.0078125 60.2011L0.0691928 59.905L40.8442 36.3615H40.8623L83.9159 11.5L86.8697 25.4925Z" fill="#141414"/>
<path d="M26.4922 0C27.1787 4.9788 29.6441 9.54085 33.4329 12.8431C37.2217 16.1453 42.0777 17.9645 47.1036 17.9645C52.1295 17.9645 56.9855 16.1453 60.7743 12.8431C64.5631 9.54085 67.0286 4.9788 67.715 0H26.4922ZM58.9548 4.82064H35.256C34.9304 4.82064 34.6181 4.69129 34.3879 4.46105C34.1576 4.2308 34.0283 3.91853 34.0283 3.59291C34.0283 3.2673 34.1576 2.95502 34.3879 2.72478C34.6181 2.49453 34.9304 2.36519 35.256 2.36519H58.9548C59.2804 2.36519 59.5927 2.49453 59.8229 2.72478C60.0532 2.95502 60.1825 3.2673 60.1825 3.59291C60.1825 3.91853 60.0532 4.2308 59.8229 4.46105C59.5927 4.69129 59.2804 4.82064 58.9548 4.82064Z" fill="#141414"/>
<path d="M83.3753 8.95881L40.2422 33.8601L9.33594 16.0183L12.723 0H24.0145C24.713 5.63034 27.445 10.8113 31.6965 14.568C35.9481 18.3248 41.426 20.3982 47.0995 20.3982C52.773 20.3982 58.2509 18.3248 62.5024 14.568C66.7539 10.8113 69.486 5.63034 70.1844 0H81.4759L83.3753 8.95881Z" fill="#141414"/>
<path d="M37.7907 35.2759L0.742188 56.6601L8.80187 18.5391L37.7907 35.2759Z" fill="#141414"/>
<path d="M90.768 65.5156V75.778C90.768 76.1036 90.6386 76.4159 90.4084 76.6461C90.1781 76.8764 89.8659 77.0057 89.5402 77.0057C89.2146 77.0057 88.9023 76.8764 88.6721 76.6461C88.4419 76.4159 88.3125 76.1036 88.3125 75.778V67.1911L90.768 65.5156Z" fill="#141414"/>
<path d="M80.5726 72.4844V82.7468C80.5726 83.0724 80.4433 83.3846 80.213 83.6149C79.9828 83.8451 79.6705 83.9745 79.3449 83.9745C79.0193 83.9745 78.707 83.8451 78.4768 83.6149C78.2465 83.3846 78.1172 83.0724 78.1172 82.7468V74.1599L80.5726 72.4844Z" fill="#141414"/>
<path d="M70.3695 79.4531V89.7119C70.3695 90.0375 70.2402 90.3498 70.0099 90.58C69.7797 90.8103 69.4674 90.9396 69.1418 90.9396C68.8162 90.9396 68.5039 90.8103 68.2737 90.58C68.0434 90.3498 67.9141 90.0375 67.9141 89.7119V81.1322L70.3695 79.4531Z" fill="#141414"/>
<path d="M60.1724 86.4219V96.6806C60.1814 96.8472 60.1564 97.0139 60.0989 97.1705C60.0414 97.3271 59.9526 97.4703 59.8378 97.5915C59.7231 97.7126 59.5849 97.8091 59.4316 97.875C59.2784 97.9409 59.1133 97.9749 58.9465 97.9749C58.7796 97.9749 58.6146 97.9409 58.4613 97.875C58.3081 97.8091 58.1698 97.7126 58.0551 97.5915C57.9404 97.4703 57.8516 97.3271 57.794 97.1705C57.7365 97.0139 57.7115 96.8472 57.7206 96.6806V88.0974L60.1724 86.4219Z" fill="#141414"/>
<path d="M48.3305 94.5156V104.778C48.3305 105.104 48.2011 105.416 47.9709 105.646C47.7406 105.876 47.4284 106.006 47.1027 106.006C46.7771 106.006 46.4648 105.876 46.2346 105.646C46.0044 105.416 45.875 105.104 45.875 104.778V94.5156L46.4094 94.8767C46.6131 95.0179 46.855 95.0935 47.1027 95.0935C47.3505 95.0935 47.5924 95.0179 47.796 94.8767L48.3305 94.5156Z" fill="#141414"/>
<path d="M36.4867 88.0974V96.6806C36.4867 97.0063 36.3574 97.3185 36.1271 97.5488C35.8969 97.779 35.5846 97.9084 35.259 97.9084C34.9334 97.9084 34.6211 97.779 34.3908 97.5488C34.1606 97.3185 34.0312 97.0063 34.0312 96.6806V86.4219L36.4867 88.0974Z" fill="#141414"/>
<path d="M26.2836 81.1286V89.7119C26.2836 89.8731 26.2518 90.0328 26.1901 90.1817C26.1284 90.3307 26.038 90.466 25.924 90.58C25.81 90.694 25.6746 90.7845 25.5257 90.8462C25.3767 90.9079 25.2171 90.9396 25.0559 90.9396C24.8946 90.9396 24.735 90.9079 24.586 90.8462C24.4371 90.7845 24.3017 90.694 24.1877 90.58C24.0737 90.466 23.9833 90.3307 23.9216 90.1817C23.8599 90.0328 23.8281 89.8731 23.8281 89.7119V79.4531L26.1861 81.06L26.2836 81.1286Z" fill="#141414"/>
<path d="M16.0883 74.1599V82.7468C16.0883 83.0724 15.9589 83.3846 15.7287 83.6149C15.4984 83.8451 15.1862 83.9745 14.8606 83.9745C14.5349 83.9745 14.2227 83.8451 13.9924 83.6149C13.7622 83.3846 13.6328 83.0724 13.6328 82.7468V72.4844L16.0883 74.1599Z" fill="#141414"/>
<path d="M5.89295 67.1911V75.778C5.89295 76.1036 5.7636 76.4159 5.53336 76.6461C5.30311 76.8764 4.99083 77.0057 4.66522 77.0057C4.3396 77.0057 4.02734 76.8764 3.7971 76.6461C3.56685 76.4159 3.4375 76.1036 3.4375 75.778V65.5156L5.89295 67.1911Z" fill="#141414"/>
</g>
<defs>
<clipPath id="clip0_3876_92339">
<rect width="94.2066" height="106" fill="white"/>
</clipPath>
</defs>
</svg>
