<svg width="137" height="119" viewBox="0 0 137 119" fill="none" xmlns="http://www.w3.org/2000/svg">
<g clip-path="url(#clip0_3876_92359)">
<path d="M101.727 45.1842C101.847 42.5399 103.02 40.387 104.951 38.6166C106.847 36.8777 108.993 36.13 111.558 36.2557C114.002 36.375 116.191 37.479 117.811 39.2948C117.915 39.4104 118.016 39.5287 118.114 39.6497C118.212 39.7706 118.307 39.8935 118.4 40.0183C118.491 40.144 118.58 40.2717 118.666 40.4013C118.751 40.5309 118.834 40.6625 118.912 40.7956C118.99 40.9287 119.067 41.0647 119.14 41.2022C119.213 41.3397 119.282 41.4792 119.347 41.6202C119.413 41.7611 119.476 41.9031 119.534 42.0475C119.593 42.1919 119.649 42.3368 119.7 42.4837C119.751 42.6306 119.798 42.7794 119.844 42.9273C119.889 43.0752 119.929 43.226 119.966 43.3768C120.003 43.5276 120.036 43.6799 120.065 43.8327C120.093 43.9855 120.12 44.1388 120.141 44.2926C120.163 44.4463 120.182 44.6011 120.197 44.7559C120.211 44.9106 120.222 45.0659 120.228 45.2211C120.235 45.3764 120.238 45.5321 120.237 45.6874C120.236 45.8427 120.232 45.9984 120.223 46.1537C120.174 47.0088 120 47.8186 119.796 48.6491C119.566 48.6243 119.338 48.5747 119.118 48.5012C119.347 47.8635 119.498 47.2004 119.568 46.5263C119.789 44.1698 118.964 41.9361 117.461 40.1327C116.005 38.3839 113.819 37.2001 111.538 37.0236C109.385 36.861 107.118 37.7738 105.503 39.1775C103.539 40.8848 102.586 43.0949 102.392 45.6554C102.258 45.9353 102.307 46.2049 102.316 46.5095C101.978 45.6795 102.286 44.6632 102.449 43.809C102.478 43.6563 102.486 43.6331 102.449 43.4754C102.218 43.7326 102.275 44.1955 102.137 44.5247L101.997 44.4675C101.808 44.9658 102.031 45.541 101.808 46.0245L101.727 45.1842Z" fill="#141414"/>
<path d="M67.131 77.3887C68.2252 77.3172 69.2967 77.5168 70.1868 78.1881C71.3746 79.0817 71.7059 80.2986 71.9242 81.6876C70.8177 81.5831 69.6417 81.6506 68.5273 81.6447C66.8421 81.6417 65.1348 81.5806 63.4531 81.6802C63.5956 80.8655 63.7607 80.1089 64.1875 79.3868C64.8578 78.2537 65.886 77.6785 67.131 77.3887Z" fill="#141414"/>
<path d="M42.1389 57.8359C47.4497 57.8971 52.7654 57.8418 58.0746 57.9503L59.9604 58.1736L59.3088 58.211C59.2028 58.4126 59.2339 58.317 59.1969 58.489C55.4249 58.5876 51.6593 58.5324 47.8864 58.5161C46.284 58.5092 44.4698 58.3332 42.8896 58.5476C42.8871 60.464 42.9103 62.3847 42.8802 64.3005C48.6252 64.2473 54.3899 64.1699 60.1338 64.2882L60.1486 62.2245C60.1782 61.9993 60.1876 61.7849 60.3123 61.5882C60.5046 61.6379 60.69 61.7112 60.8643 61.8065L60.8549 64.336C61.9112 64.333 63.0236 64.2586 64.0749 64.3399C64.1138 64.3439 64.1528 64.3483 64.1922 64.3518C64.9315 64.4188 66.1144 64.2098 66.7773 64.4449C66.2352 64.6564 65.6082 64.2911 65.0459 64.6219L65.038 64.718C65.0932 64.7071 65.1484 64.6953 65.2041 64.6854C65.3579 64.6588 65.3909 64.6623 65.5422 64.7145C66.0144 64.8782 66.5802 64.5371 66.9715 64.7599C65.3214 65.0383 63.5618 64.6613 61.9136 64.9373C58.4975 65.1147 55.0104 64.959 51.5854 64.9555C46.907 64.9511 42.2208 65.0541 37.5439 64.9412C36.9149 64.7017 34.4471 64.6199 33.7487 64.7613C33.6863 64.7779 33.625 64.7986 33.5653 64.8234C33.3707 64.6864 33.3707 64.6938 33.3125 64.4636C33.7354 64.2098 36.5749 64.4336 37.4103 64.2566L37.5089 64.2335C39.0368 64.1625 40.6021 64.2384 42.134 64.2433C42.1517 62.1082 42.1133 59.974 42.1389 57.8359Z" fill="#141414"/>
<path d="M9.75 53.8423C11.2336 47.0303 15.0287 41.0729 20.9738 37.2817C21.3326 37.0517 21.6968 36.8312 22.0665 36.6202C22.4362 36.4093 22.8111 36.2067 23.1912 36.0125C23.5708 35.8193 23.9549 35.6355 24.3436 35.461C24.7323 35.2865 25.1251 35.1222 25.5221 34.9681C25.9187 34.8133 26.319 34.6679 26.7232 34.5319C27.1274 34.3959 27.5345 34.2704 27.9445 34.1554C28.3546 34.04 28.7673 33.9349 29.1826 33.8399C29.598 33.7449 30.0155 33.6598 30.4351 33.5846C30.8543 33.5097 31.2752 33.4451 31.6978 33.3909C32.1203 33.3367 32.5441 33.2931 32.9689 33.2603C33.3938 33.2274 33.8191 33.2044 34.245 33.1913C34.6708 33.1781 35.0968 33.1762 35.523 33.1854C35.9502 33.1939 36.3757 33.213 36.7996 33.2425C37.2234 33.2721 37.6475 33.3117 38.0717 33.3613C38.4952 33.4116 38.9168 33.4722 39.3364 33.5432C39.756 33.6142 40.1743 33.6953 40.5913 33.7867C47.3318 35.3047 53.238 39.2847 56.9291 45.1721C59.5833 49.4064 60.8874 54.244 60.9279 59.2231C60.9343 60.0353 61.0047 61.0122 60.8633 61.8077C60.689 61.7124 60.5036 61.639 60.3113 61.5894C60.1866 61.7865 60.1772 62.0004 60.1476 62.2257L60.0983 58.6326L49.0648 58.6375C47.0332 58.6375 44.9059 58.7534 42.8866 58.5488C44.4668 58.3344 46.281 58.5104 47.8834 58.5173C51.6563 58.5335 55.4219 58.5892 59.1939 58.4902C59.2309 58.3181 59.1998 58.4138 59.3058 58.2122L59.9574 58.1747L58.0716 57.9514C58.7345 57.916 59.4063 57.9312 60.0703 57.9258C59.9554 53.9296 58.6941 49.6884 56.659 46.2308C53.1882 40.3346 47.4156 36.3492 40.8219 34.6975C34.1405 33.0217 27.4245 34.3619 21.5928 37.8776C17.6193 40.2729 14.0735 44.2588 12.2139 48.5508C11.4253 50.372 10.9073 52.3189 10.4302 54.2411C10.196 54.0365 10.0477 53.9439 9.75 53.8423Z" fill="#141414"/>
<path d="M117.306 66.6036C115.532 65.4798 114.306 64.0466 113.85 61.9523C113.805 61.7351 113.77 61.5161 113.746 61.2953C113.722 61.0745 113.709 60.8532 113.707 60.6314C113.705 60.409 113.714 60.1873 113.733 59.9665C113.753 59.7457 113.783 59.5261 113.825 59.3076C113.866 59.0897 113.918 58.8741 113.981 58.6609C114.043 58.4476 114.116 58.2383 114.2 58.033C114.283 57.8269 114.376 57.6257 114.479 57.4292C114.582 57.2327 114.695 57.0416 114.816 56.856C115.776 55.3852 117.247 54.2437 118.988 53.8987C120.729 53.5537 122.441 53.9855 123.892 54.9732C125.314 55.9417 126.173 57.5495 126.478 59.2188C126.801 60.9863 126.39 62.9366 125.344 64.4024C124.327 65.8318 122.841 66.7189 121.117 67.0068C120.054 67.1847 118.981 67.1014 117.941 66.8298C113.828 74.6745 112.651 82.0992 112.691 90.862C112.561 90.8714 112.432 90.8679 112.302 90.8674L112.165 90.5968C111.497 84.4852 112.937 76.6879 115.086 70.9444C115.628 69.4943 116.204 67.9713 117.18 66.7549L117.306 66.6036Z" fill="#141414"/>
<path d="M32.9033 64.2983C34.3016 63.9859 36.0833 64.1564 37.5132 64.2323L37.4146 64.2555C36.5792 64.4324 33.7397 64.2086 33.3168 64.4625C33.375 64.6926 33.375 64.6852 33.5697 64.8223C33.6293 64.7975 33.6906 64.7767 33.753 64.7602C34.4495 64.6187 36.9173 64.7005 37.5482 64.9401C36.2263 64.9963 34.9036 65.0326 33.58 65.049C33.4814 67.3862 33.5524 69.7387 33.5524 72.0769L33.5421 83.9124L33.545 116.03C37.4442 116.178 41.3709 116.04 45.2755 116.023H62.4557L111.475 116.088L128.818 116.028C130.54 116.02 134.482 115.771 135.886 116.054C136.295 116.137 136.734 116.321 136.929 116.716C137.037 116.934 137.027 117.194 136.948 117.419C136.824 117.761 136.561 117.972 136.226 118.082C135.275 118.394 132.617 118.155 131.466 118.161L115.774 118.165L60.0741 118.13L28.5793 118.144L10.2852 118.17C7.51473 118.17 4.70484 118.289 1.9403 118.207C1.45777 118.192 0.949604 118.154 0.524745 117.902C0.392963 117.829 0.279345 117.727 0.192246 117.604C0.105146 117.481 0.0467915 117.34 0.0215197 117.191C-0.0188962 116.944 0.02646 116.707 0.205867 116.525C0.542009 116.18 1.1241 116.112 1.57656 116.081C2.59632 116.013 3.65008 116.097 4.67379 116.097H11.5248L32.7145 116.075L32.7461 79.4208L32.754 69.7111C32.7545 67.9806 32.5775 65.9997 32.9033 64.2983Z" fill="#141414"/>
<path d="M68.7167 64.2628L68.7064 59.3902C68.7034 56.2082 68.6029 53.0484 71.019 50.6269C73.8712 47.7682 76.3208 48.3705 76.3795 43.0755C76.3918 41.9759 76.1912 39.1488 75.6343 38.2369C75.309 37.7041 73.5504 36.2881 74.0413 35.7376C75.5377 35.3866 82.4695 35.3763 83.9599 35.7243L84.0634 35.8317C83.9935 36.7337 82.7159 37.6263 82.3127 38.4617C82.0771 38.9516 81.9845 39.5588 81.8859 40.0912C81.4606 42.3998 81.3881 45.5448 83.0072 47.4404C84.1177 48.7401 85.7875 49.3464 86.9911 50.5456C89.418 52.9606 89.1938 56.3181 89.1721 59.4755C89.1461 61.3396 89.1378 63.2039 89.147 65.0687C81.7699 65.1531 74.3932 65.1203 67.0168 64.9701C65.3193 64.9356 63.6086 65.007 61.9141 64.9366C63.5622 64.6606 65.3218 65.0376 66.972 64.7591C66.5816 64.5364 66.0158 64.8774 65.5426 64.7138C65.3913 64.6615 65.3583 64.6581 65.2045 64.6847C65.1488 64.6946 65.0936 64.7064 65.0384 64.7172L65.0463 64.6211C65.6087 64.2904 66.2356 64.6556 66.7778 64.4442C66.1138 64.2091 64.9334 64.4181 64.1926 64.351C64.1532 64.3476 64.1143 64.3431 64.0753 64.3392C65.6151 64.2387 67.1745 64.2736 68.7167 64.2628Z" fill="#141414"/>
<path d="M55.344 84.1039C63.9279 83.9216 72.5572 84.0946 81.1441 84.1779C81.2126 87.5353 79.9326 91.084 77.3263 93.3084C76.6639 93.8742 73.7209 95.5697 73.5311 96.1597L73.8229 96.2134C73.9496 96.1272 74.0122 96.1567 74.162 96.1587L74.2212 96.3672L74.4213 96.2612C76.2942 96.4135 78.2697 96.2883 80.1554 96.2839L90.4112 96.2972C91.7277 96.3006 94.5366 96.0828 95.6682 96.5308C95.891 96.8054 95.9477 97.0237 95.9703 97.3687C96.0137 98.0316 96.1049 99.286 95.5903 99.7685C95.0975 100.232 93.9609 100.046 93.3231 100.023C95.2453 104.271 96.1133 108.205 97.0004 112.742C96.4174 112.757 95.8363 112.8 95.2547 112.838C93.8855 108.429 92.5582 103.924 89.9351 100.069C86.4396 99.9534 82.9165 100.045 79.4186 100.046L56.697 100.1L49.2131 100.124C47.6852 100.124 46.1139 100.181 44.5909 100.043C41.9476 103.978 40.7721 108.211 39.6656 112.755C38.9834 112.769 38.2993 112.761 37.6172 112.764C38.0071 111.311 38.2008 109.748 38.4852 108.266C39.0224 105.462 39.6681 102.844 40.6326 100.15C39.8204 100.057 38.9933 100.116 38.1776 100.142C38.2091 98.8602 38.2032 97.5742 38.2146 96.2918L54.34 96.2819C56.4988 96.276 58.7419 96.4209 60.8928 96.277C61.2073 96.2553 61.4626 96.2371 61.7213 96.0404C61.7401 95.7881 61.6582 95.7703 61.4537 95.65C59.2412 94.3469 58.0036 93.8506 56.3007 91.7445C54.5017 89.5206 53.8535 87.1031 54.1537 84.275C54.5446 84.1892 54.9492 84.1542 55.344 84.1039Z" fill="#141414"/>
<path d="M101.723 45.18L101.804 46.0179C102.026 45.5344 101.804 44.9592 101.993 44.4609L102.133 44.5181C102.271 44.1888 102.214 43.726 102.445 43.4688C102.482 43.6265 102.475 43.6496 102.445 43.8024C102.282 44.6566 101.974 45.6754 102.312 46.5029C102.303 46.1983 102.254 45.9287 102.388 45.6487C102.519 48.1905 103.459 50.6928 105.373 52.4386C105.472 52.5278 105.571 52.6151 105.675 52.6993C105.78 52.7836 105.883 52.8664 105.99 52.9458C106.096 53.0251 106.205 53.1015 106.316 53.1755C106.426 53.2494 106.538 53.3233 106.652 53.3894C106.767 53.4554 106.882 53.5239 106.997 53.5865C107.113 53.6491 107.233 53.7093 107.353 53.7664C107.474 53.8236 107.595 53.8773 107.718 53.9286C107.841 53.9798 107.964 54.0272 108.09 54.0725C108.216 54.1179 108.342 54.1593 108.469 54.1982C108.596 54.2371 108.724 54.2726 108.853 54.3051C108.982 54.3377 109.112 54.3672 109.242 54.3929C109.373 54.4185 109.504 54.4422 109.637 54.4619C109.769 54.4816 109.9 54.4979 110.031 54.5112C110.162 54.5245 110.296 54.5343 110.429 54.5407C110.562 54.5471 110.695 54.5511 110.828 54.5511C110.961 54.5511 111.093 54.5481 111.226 54.5417C113.552 54.4155 115.798 53.2366 117.338 51.5071C117.533 51.2879 117.717 51.0597 117.89 50.8225C118.062 50.5852 118.223 50.3404 118.373 50.0881C118.522 49.8351 118.658 49.576 118.783 49.3108C118.907 49.0457 119.018 48.7746 119.116 48.4976C119.336 48.5711 119.563 48.6207 119.794 48.6454C118.899 51.2118 117.304 53.2292 114.822 54.4328C113.55 55.0484 112.275 55.3057 110.871 55.3367C110.704 62.6313 110.802 69.9688 110.857 77.2697C110.891 81.7855 110.815 86.3273 110.948 90.8396C111.316 90.8396 111.732 90.883 112.075 90.7411L112.163 90.5996L112.3 90.8702C112.429 90.8702 112.559 90.8741 112.689 90.8648C114.512 90.7322 116.432 90.8648 118.265 90.8746L118.329 112.758C112.977 112.636 107.584 112.552 102.233 112.747C102.136 105.417 102.114 98.0879 102.165 90.7588L106.903 90.778C106.909 84.8108 106.253 79.6173 103.732 74.135C103.11 72.7846 102.23 71.5765 101.621 70.2344L101.577 70.1329C100.4 70.2502 99.2174 70.2394 98.0857 69.8687C97.8797 69.803 97.6775 69.7268 97.479 69.64C97.2809 69.5542 97.0873 69.4585 96.8989 69.3532C96.7098 69.2476 96.5262 69.1325 96.3488 69.0081C96.1714 68.8849 96.0005 68.7535 95.8362 68.6138C95.6719 68.4739 95.5146 68.3259 95.3651 68.1703C95.2152 68.0145 95.0734 67.8515 94.9397 67.6813C94.8062 67.5116 94.6813 67.3353 94.5656 67.153C94.4494 66.9709 94.3425 66.783 94.2452 66.5901C93.4364 64.9552 93.2496 62.9946 93.8647 61.267C94.4798 59.5395 95.7337 58.0195 97.4134 57.2466C97.6185 57.153 97.8276 57.0694 98.0409 56.9958C98.2541 56.9222 98.4703 56.8594 98.6895 56.8075C98.9093 56.7552 99.1308 56.7138 99.3539 56.6833C99.5772 56.6523 99.8019 56.6325 100.027 56.6241C100.253 56.6153 100.478 56.6174 100.703 56.6305C100.928 56.6437 101.152 56.668 101.375 56.7035C101.598 56.7383 101.818 56.7844 102.037 56.8415C102.255 56.8983 102.47 56.9654 102.682 57.0426C102.883 57.1195 103.079 57.2057 103.27 57.3013C103.462 57.397 103.648 57.5024 103.83 57.6178C104.011 57.7324 104.186 57.856 104.355 57.9884C104.524 58.1208 104.686 58.2613 104.841 58.4098C104.996 58.5581 105.143 58.7142 105.282 58.8776C105.421 59.0419 105.552 59.2116 105.676 59.3867C105.8 59.5618 105.913 59.744 106.015 59.9333C106.119 60.1209 106.214 60.3133 106.298 60.5105C106.391 60.7283 106.474 60.9499 106.544 61.1753C106.615 61.4008 106.676 61.6295 106.727 61.8614C106.776 62.0914 106.814 62.3249 106.841 62.5618C106.868 62.7987 106.884 63.0348 106.888 63.2701C106.892 63.5067 106.884 63.7431 106.865 63.9793C106.846 64.2156 106.816 64.45 106.774 64.6827C106.732 64.9156 106.679 65.1456 106.615 65.3727C106.551 65.5997 106.476 65.8242 106.39 66.046C105.583 68.0727 104.067 69.1131 102.129 69.9426C103.282 71.2143 104.036 72.7806 104.706 74.345C106.973 79.6356 107.719 85.109 107.75 90.8342C108.539 90.8515 109.327 90.8342 110.113 90.8199L110.087 71.2172C110.095 65.9385 110.243 60.615 110.023 55.3417C107.5 54.9533 105.26 53.8182 103.677 51.7851C102.251 49.9525 101.446 47.5054 101.723 45.18Z" fill="#141414"/>
<path d="M9.74737 53.8438C10.0431 53.9453 10.1934 54.0379 10.4295 54.2454C9.42749 59.4384 10.4231 65.0572 12.75 69.7666C16.2873 76.9252 21.3817 80.2082 28.7685 82.7086C28.7027 92.5868 28.7093 102.465 28.7882 112.342C23.2778 112.478 17.7226 112.293 12.2083 112.267C12.0447 108.042 12.159 103.765 12.1708 99.5354L12.1758 80.7075C12.1758 77.4407 12.2995 74.1251 12.1432 70.8657C12.0821 69.5991 11.2349 68.4605 10.8125 67.2899C9.24019 62.9245 8.91983 58.4024 9.74737 53.8438Z" fill="#141414"/>
<path d="M83.0716 0.000159612C83.5319 0.000159612 84.0337 -0.0185654 84.3723 0.349614C84.9539 0.982467 84.6759 2.5232 84.6345 3.32905C85.7824 4.01908 86.8722 5.01321 87.9427 5.82793C90.643 7.8737 93.321 9.94855 95.9766 12.0525L106.011 19.8641C108.263 21.5985 110.536 23.2649 112.724 25.0836C109.928 25.1329 107.108 25.0309 104.309 25.0255L84.9356 25.0225L66.193 25.0156C62.5792 25.0058 58.9477 24.8944 55.3359 25.0043C57.5347 23.0934 59.9019 21.3358 62.179 19.52L75.536 8.83645C77.7416 7.05323 80.1725 5.34048 82.2115 3.37636C82.2229 2.55671 82.0597 1.58821 82.3229 0.804538C82.4658 0.373764 82.6728 0.19386 83.0716 0.000159612Z" fill="#141414"/>
</g>
<defs>
<clipPath id="clip0_3876_92359">
<rect width="137" height="118.248" fill="white"/>
</clipPath>
</defs>
</svg>
