<svg width="105" height="112" viewBox="0 0 105 112" fill="none" xmlns="http://www.w3.org/2000/svg">
<g clip-path="url(#clip0_3876_92345)">
<path d="M104.848 75.1904C104.643 74.9444 104.397 74.736 104.12 74.5744C103.325 74.0743 102.454 73.6558 101.626 73.2088L97.5412 70.9837L84.4929 63.9784C85.2124 63.5752 86.5544 63.1791 86.7919 62.2983C86.9986 61.5345 86.8734 58.5148 86.8734 57.4637L86.8639 45.6735V18.3876C86.8639 14.6408 86.9313 10.8857 86.8639 7.1401C86.8764 6.89729 86.8451 6.65421 86.7718 6.42243C86.484 6.14908 86.1647 5.91094 85.8208 5.71303C83.5053 4.35216 81.0303 3.20176 78.6463 1.96149C77.7319 1.48856 75.6114 0.214002 74.7632 0C74.0366 0.178532 73.2794 0.655012 72.6084 0.991977L69.0891 2.75838L54.4106 10.0687L29.5002 22.5506L21.6784 26.4819C20.4332 27.1061 19.116 27.676 17.9122 28.3736L17.9063 65.0697C14.0109 67.1584 10.1026 69.2224 6.18122 71.2615C4.37963 72.2074 2.45872 73.0634 0.730382 74.1275C0.502378 74.2682 0.225935 74.3994 0.151509 74.6726C-0.111936 75.635 0.0487284 78.0032 0.0463657 79.1051C0.0463657 80.3407 -0.0197817 81.614 0.0558258 82.8448C0.0700022 83.0813 0.0924465 83.572 0.21649 83.7588C0.523646 84.2163 35.804 103.047 39.308 104.905C42.1622 106.458 45.0242 107.995 47.8942 109.516C48.8393 110.02 50.7212 111.22 51.6544 111.454C52.264 111.261 52.8358 110.909 53.4052 110.617L56.0645 109.269L66.9106 103.78L103.903 85.1078C104.213 84.9632 104.5 84.774 104.755 84.5462C104.871 84.2663 104.938 83.9683 104.953 83.6654C105.038 82.5268 104.953 81.3362 104.953 80.1929C104.952 78.955 105.103 76.2108 104.848 75.1904ZM84.5414 8.58846C84.6902 9.12169 84.5685 11.3563 84.5674 12.1118L84.5792 20.6778L84.5851 46.6891C84.5851 51.5733 84.6323 56.4635 84.5614 61.35C82.0333 62.7688 79.3634 63.9784 76.7774 65.2837L60.6258 73.4347C53.8455 76.8894 47.042 80.2969 40.2152 83.6571C36.9074 85.2852 33.635 87.0327 30.2504 88.4976C30.1944 88.3694 30.1732 88.2287 30.189 88.0897C30.1063 81.0181 30.2114 73.9395 30.2043 66.868V35.4782C30.7537 35.1708 31.355 34.9214 31.9221 34.6423L34.9558 33.1219L47.5964 26.8555L84.4634 8.56718L84.5414 8.58846ZM32.8671 23.3936L53.9144 12.833L69.3561 5.14787C71.1576 4.25048 73.0112 3.42285 74.7904 2.48881C75.6882 2.86006 76.7727 3.5269 77.6599 3.98564C79.432 4.90313 81.2406 5.78042 82.9761 6.76176C81.2501 7.66388 79.4816 8.48678 77.7331 9.34515L66.8645 14.6952L29.4943 33.3039C29.4553 33.3193 29.3986 33.3441 29.3597 33.3548C29.3597 33.3548 29.2238 33.3784 29.212 33.3749C28.8576 33.2756 27.7282 32.5472 27.3041 32.3167L21.4256 29.1114C25.2603 27.248 29.0572 25.3055 32.8671 23.3936ZM25.6171 33.9637C26.3862 34.387 27.2367 34.7641 27.9456 35.2772L27.9349 72.2062L27.9231 83.1877L27.916 86.2133C27.916 86.8045 27.9538 87.4548 27.8629 88.0471C26.7996 87.5375 25.7719 86.9523 24.7358 86.3918C23.2 85.5737 21.6784 84.7299 20.171 83.8605V31.048C22.0013 31.9915 23.8167 32.9634 25.6171 33.9637ZM8.05723 72.8234C11.3304 71.139 14.5902 69.4285 17.8366 67.6921C17.9547 67.834 17.9027 81.3764 17.8992 82.6628C16.8029 82.1827 15.7527 81.5395 14.6977 80.9732L8.83929 77.8377L3.75115 75.1325C5.10972 74.2718 6.63368 73.5742 8.05723 72.8234ZM50.544 108.356C49.7524 108.148 48.2297 107.167 47.4181 106.739L37.2583 101.267L14.3551 88.9658L5.95439 84.4209C4.75648 83.7635 3.51486 83.1593 2.35122 82.444C2.32523 80.6102 2.33232 78.7705 2.34414 76.9367C3.03524 77.2465 3.70035 77.639 4.36664 78.0008L7.51735 79.6892L18.354 85.5205L50.5522 102.807C50.5806 104.648 50.603 106.514 50.544 108.356ZM47.2916 98.4836C43.6294 96.4957 39.955 94.5318 36.2683 92.592C34.8058 91.8306 33.3633 90.9663 31.8618 90.2853C33.7213 89.272 35.6953 88.4018 37.6009 87.4749L47.8469 82.4369L60.8573 75.8289C65.0071 73.7622 69.1466 71.6734 73.2758 69.5625C76.156 68.1295 79.0275 66.6796 81.8904 65.2127C82.676 65.5213 83.4203 65.9848 84.1645 66.3832C85.4814 67.0832 86.7946 67.7902 88.1044 68.5043C90.5459 69.8356 92.9988 71.1535 95.4631 72.4581C97.4714 73.5363 99.4668 74.6406 101.509 75.6504C99.6723 76.4993 97.905 77.5314 96.1034 78.4572L86.0264 83.5814L63.3653 94.9791L54.9646 99.2521C54.0916 99.6907 52.5511 100.599 51.6686 100.825C50.1943 100.08 48.7483 99.2627 47.2916 98.4824V98.4836ZM102.672 83.0766C100.757 84.2234 98.6717 85.1906 96.6787 86.2027L86.2827 91.4759L68.3188 100.537C63.1759 103.172 58.0145 105.771 52.8346 108.335C52.7744 106.515 52.8429 104.678 52.8276 102.855C54.8666 101.779 56.9493 100.793 59.0037 99.7451C65.3571 96.4858 71.7294 93.2628 78.1206 90.076L92.6243 82.7231C95.9368 81.0213 99.2596 79.3388 102.593 77.6757C102.596 77.6778 102.6 77.6806 102.602 77.684C102.751 77.9204 102.673 82.4133 102.672 83.0754V83.0766Z" fill="#141414"/>
<path d="M34.7995 65.4391V74.4674C34.7995 75.9843 34.7145 77.5616 34.8137 79.0785C34.8362 79.4261 34.8374 79.7985 35.1043 80.0492C35.3434 80.2775 35.6624 80.4027 35.9927 80.398C37.1328 79.9783 38.2137 79.3244 39.3124 78.8042C40.9037 78.0499 42.4595 77.2317 44.0319 76.4395L50.1904 73.3655L79.2615 58.7294C79.4712 58.6244 79.643 58.4566 79.753 58.2494C79.7911 58.1348 79.8122 58.0153 79.8156 57.8947C79.9113 56.9677 79.8629 56.0136 79.8605 55.0819V50.7427L79.8699 36.1776L79.8534 23.3942L79.8428 19.6817C79.8428 18.9427 79.8841 18.173 79.792 17.4412C79.5202 17.0427 79.3029 16.8429 78.8232 16.7471C78.7724 16.7365 78.7205 16.727 78.6697 16.7188C77.4233 17.1728 76.1947 17.9141 74.9968 18.5005L65.7738 23.1116C55.4794 28.2816 45.157 33.3912 34.8066 38.4406L34.7995 65.4391ZM46.7739 72.5532C43.5448 74.173 40.3028 75.7703 37.0477 77.3452L37.0253 62.1168C37.7152 62.4455 38.3791 62.8794 39.0478 63.2542L43.2263 65.5893C45.9706 67.1263 48.7893 68.5688 51.4958 70.1696C50.0935 71.0386 48.2742 71.8166 46.7739 72.5532ZM57.8977 29.5565L62.7117 27.1989L77.454 19.846L77.5131 19.8638C77.6371 20.1995 77.5509 24.8863 77.5545 25.7139V55.9686C75.9076 55.141 74.3199 54.1833 72.7108 53.2895C69.6771 51.62 66.6556 49.9293 63.6462 48.2173C61.0385 46.7859 58.4435 45.332 55.861 43.8556C55.8255 42.4593 55.861 41.0547 55.861 39.6572L55.8314 30.5745C56.5013 30.1985 57.2113 29.8947 57.8977 29.5565ZM55.8409 60.8966L55.8633 46.5159C56.7683 46.8966 57.646 47.483 58.5037 47.969L63.456 50.7557C67.625 53.1121 71.8697 55.3455 76.008 57.7528C73.8308 58.9753 71.5437 60.0536 69.312 61.1744C64.8441 63.4485 60.3592 65.6862 55.8574 67.8877C55.8019 65.5621 55.835 63.2234 55.8409 60.8966ZM36.9863 52.703L37.0312 39.9338C39.5349 38.6553 42.0551 37.4068 44.5919 36.1882L53.5207 31.745C53.5469 31.7798 53.5692 31.8175 53.5868 31.8573C53.6672 32.134 53.5868 38.612 53.5868 39.5425L53.5774 68.6527C52.1042 67.9634 50.6889 67.1275 49.2678 66.3389L42.9888 62.8711C40.9883 61.7676 38.9993 60.6459 37.0217 59.5062C36.9461 57.242 36.9874 54.966 36.9863 52.703Z" fill="#141414"/>
<path d="M62.3825 38.3013C62.4429 38.675 62.5807 39.0321 62.787 39.3495C62.9933 39.6669 63.2635 39.9377 63.5804 40.1445C64.3613 40.6896 65.3099 41.101 66.1487 41.5633C67.3419 42.2172 68.5445 42.9975 69.7979 43.5154C70.0878 43.6355 70.3975 43.7005 70.7111 43.7069C71.4459 43.6076 72.1004 43.312 72.5694 42.7196C72.8067 42.4225 72.9619 42.0682 73.0195 41.6922C73.2097 40.5288 73.0952 38.2859 73.0963 37.0102C73.0963 35.8373 73.2145 34.1229 73.055 33.0009C72.9676 32.3636 72.5907 31.8351 72.0851 31.4556C71.0549 30.6811 69.3041 29.9493 68.0956 29.3274C67.2934 28.9112 66.5149 28.4158 65.6821 28.0682C65.4101 27.9418 65.1148 27.8734 64.8149 27.8672C64.7653 27.8672 64.7157 27.8814 64.6661 27.8897C64.6165 27.8979 64.568 27.9086 64.5184 27.9204C64.4688 27.9322 64.4204 27.944 64.3719 27.9582C64.3235 27.9724 64.2762 27.9866 64.229 28.0032C64.1817 28.0197 64.1345 28.0363 64.0872 28.0552C64.04 28.0741 63.9939 28.0942 63.949 28.1143L63.8131 28.1805C63.7682 28.2042 63.7245 28.229 63.6808 28.2538C63.6371 28.2786 63.5958 28.3058 63.5532 28.3342C63.5107 28.3626 63.4705 28.391 63.4351 28.4205C63.3997 28.4501 63.3548 28.4808 63.317 28.5127C63.2792 28.5447 63.2402 28.5778 63.1988 28.6109C63.1575 28.644 63.1244 28.6794 63.0889 28.7149C63.0535 28.7504 63.0193 28.787 62.985 28.8249C62.9507 28.8627 62.9188 28.9005 62.8869 28.9431C62.855 28.9857 62.8243 29.0211 62.7948 29.0613C62.5774 29.3534 62.439 29.6967 62.3931 30.058C62.2077 31.2912 62.3317 33.099 62.3317 34.3842C62.3329 35.5866 62.1887 37.1213 62.3825 38.3013ZM64.724 30.2248C65.4529 30.3501 69.8216 32.7691 70.8163 33.2882V38.7872C70.8163 39.4671 70.9238 40.7499 70.7513 41.3753C68.6461 40.472 66.6626 39.2117 64.6212 38.1677C64.5905 37.1225 64.4593 30.7592 64.724 30.2248Z" fill="#141414"/>
</g>
<defs>
<clipPath id="clip0_3876_92345">
<rect width="105" height="111.455" fill="white"/>
</clipPath>
</defs>
</svg>
